<svg width="64" height="64" viewBox="0 0 64 64" fill="none" xmlns="http://www.w3.org/2000/svg">
<g opacity="0.9">
<rect width="64" height="64" rx="15" fill="white"/>
<path d="M15.0827 54.6107C14.6998 54.9436 14.2299 55.1604 13.7281 55.2356C13.2263 55.3108 12.7135 55.2413 12.2498 55.0352C11.7862 54.8292 11.3909 54.4951 11.1105 54.0722C10.8301 53.6494 10.6761 53.1553 10.6667 52.648V46.6667C9.25217 46.6667 7.89562 46.1048 6.89543 45.1046C5.89523 44.1044 5.33333 42.7478 5.33333 41.3334V22.6667C5.33333 21.2522 5.89523 19.8956 6.89543 18.8955C7.89562 17.8953 9.25217 17.3334 10.6667 17.3334H40C41.4145 17.3334 42.771 17.8953 43.7712 18.8955C44.7714 19.8956 45.3333 21.2522 45.3333 22.6667V41.3334C45.3333 42.7478 44.7714 44.1044 43.7712 45.1046C42.771 46.1048 41.4145 46.6667 40 46.6667H26.6747L15.0827 54.6107ZM17.3333 46.3627C17.5763 46.3613 17.8149 46.298 18.0267 46.1787L24.3067 41.8107C24.7536 41.4999 25.2849 41.3333 25.8293 41.3334H37.3333C38.0406 41.3334 38.7188 41.0524 39.2189 40.5523C39.719 40.0522 40 39.3739 40 38.6667V25.3334C40 24.6261 39.719 23.9478 39.2189 23.4477C38.7188 22.9476 38.0406 22.6667 37.3333 22.6667H13.3333C12.6261 22.6667 11.9478 22.9476 11.4477 23.4477C10.9476 23.9478 10.6667 24.6261 10.6667 25.3334V38.6667C10.6667 40.1067 11.8107 41.2854 13.3333 41.3334C14.4267 41.376 15.2187 41.5547 15.584 41.936C15.9253 42.2934 15.944 42.896 16 44.0427C16.008 44.2107 16.008 44.5147 16 45.0294C16 45.383 16.1405 45.7221 16.3905 45.9722C16.6406 46.2222 16.9797 46.3627 17.3333 46.3627ZM48 33.376C47.9915 33.7049 47.9915 34.0339 48 34.3627V33.376C48.0533 32.2294 48.0747 31.6267 48.416 31.2694C48.7813 30.888 49.5733 30.7094 50.6667 30.6667C52.1893 30.6187 53.3333 29.44 53.3333 28V14.6667C53.3333 13.9594 53.0524 13.2812 52.5523 12.7811C52.0522 12.281 51.3739 12 50.6667 12H26.6667C25.9594 12 25.2811 12.281 24.781 12.7811C24.2809 13.2812 24 13.9594 24 14.6667H18.6667V12C18.6667 10.5855 19.2286 9.22898 20.2288 8.22878C21.229 7.22859 22.5855 6.66669 24 6.66669H53.3333C54.7478 6.66669 56.1044 7.22859 57.1046 8.22878C58.1048 9.22898 58.6667 10.5855 58.6667 12V30.6667C58.6667 32.0812 58.1048 33.4377 57.1046 34.4379C56.1044 35.4381 54.7478 36 53.3333 36V41.9814C53.3239 42.4887 53.1699 42.9827 52.8895 43.4056C52.6091 43.8284 52.2138 44.1625 51.7502 44.3686C51.2865 44.5746 50.7737 44.6441 50.2719 44.5689C49.7701 44.4937 49.3002 44.277 48.9173 43.944L48 43.3147V33.3787V33.376Z" fill="black"/>
</g>
</svg>
