<svg width="372" height="245" viewBox="0 0 372 245" fill="none" xmlns="http://www.w3.org/2000/svg">
<rect opacity="0.85" width="372" height="245" rx="25" fill="#FD6816"/>
<path opacity="0.95" d="M72.1573 107C73.9307 107 75.2973 107.547 76.2573 108.64C77.2173 109.733 77.6973 111.293 77.6973 113.32C77.6973 115.507 77.184 117.2 76.1573 118.4C75.1307 119.587 73.6707 120.18 71.7773 120.18C70.0173 120.18 68.6573 119.62 67.6973 118.5C66.7507 117.367 66.2773 115.767 66.2773 113.7C66.2773 111.553 66.784 109.9 67.7973 108.74C68.824 107.58 70.2773 107 72.1573 107ZM71.9973 108.68C70.784 108.68 69.8773 109.073 69.2773 109.86C68.6907 110.633 68.3973 111.833 68.3973 113.46C68.3973 115.233 68.684 116.533 69.2573 117.36C69.844 118.173 70.744 118.58 71.9573 118.58C73.184 118.58 74.0907 118.187 74.6773 117.4C75.264 116.613 75.5573 115.387 75.5573 113.72C75.5573 111.973 75.264 110.7 74.6773 109.9C74.104 109.087 73.2107 108.68 71.9973 108.68ZM90.6158 115.32C90.6158 116.76 90.2158 117.893 89.4158 118.72C88.6291 119.533 87.4558 120.013 85.8958 120.16L85.9158 123.7H83.9758L83.9958 120.18C82.4358 120.06 81.2558 119.607 80.4558 118.82C79.6691 118.033 79.2758 116.92 79.2758 115.48C79.2758 114.027 79.6691 112.893 80.4558 112.08C81.2424 111.267 82.4158 110.787 83.9758 110.64L83.9558 107.26L85.9358 107.08L85.8958 110.64C87.4558 110.76 88.6291 111.213 89.4158 112C90.2158 112.787 90.6158 113.893 90.6158 115.32ZM85.8758 118.78C86.8491 118.647 87.5624 118.3 88.0158 117.74C88.4824 117.18 88.7158 116.387 88.7158 115.36C88.7158 114.36 88.4891 113.593 88.0358 113.06C87.5824 112.527 86.8691 112.207 85.8958 112.1L85.8558 115.9L85.8758 118.78ZM81.1558 115.38C81.1558 116.407 81.3824 117.2 81.8358 117.76C82.3024 118.32 83.0224 118.66 83.9958 118.78L84.0158 116.14L83.9958 112.1C83.0091 112.22 82.2891 112.547 81.8358 113.08C81.3824 113.6 81.1558 114.367 81.1558 115.38ZM92.6191 116.14L92.5391 110.82L94.5191 110.74L94.4791 117.18H94.5991L98.2991 110.78H100.299L100.219 115.9L100.299 120H98.3191L98.3791 116.28L98.3991 113.48H98.2591L94.4991 120H92.5391L92.6191 116.14ZM111.985 118.5V122.2L110.625 122.32L110.385 120H103.145L103.225 116.14L103.165 110.78H105.165L105.085 115.96L105.125 118.5H108.685L108.725 116.14L108.665 110.78H110.645L110.565 115.96L110.625 118.5H111.985ZM114.045 116.14L113.965 110.82L115.945 110.74L115.905 117.18H116.025L119.725 110.78H121.725L121.645 115.9L121.725 120H119.745L119.805 116.28L119.825 113.48H119.685L115.925 120H113.965L114.045 116.14ZM127.927 110.6C128.847 110.6 129.573 110.82 130.107 111.26C130.64 111.7 130.907 112.313 130.907 113.1C130.907 113.34 130.867 114.14 130.787 115.5C130.707 116.833 130.667 117.613 130.667 117.84C130.667 118.093 130.707 118.273 130.787 118.38C130.88 118.473 131.033 118.52 131.247 118.52C131.38 118.52 131.58 118.493 131.847 118.44L132.027 118.58L131.827 119.7C131.44 119.94 131.02 120.087 130.567 120.14C130.153 120.1 129.82 119.953 129.567 119.7C129.313 119.433 129.16 119.087 129.107 118.66H128.967C128.287 119.38 127.593 119.88 126.887 120.16C125.967 120.147 125.24 119.907 124.707 119.44C124.187 118.973 123.927 118.34 123.927 117.54C123.927 116.353 124.573 115.613 125.867 115.32L129.027 114.62L129.047 113.54C129.047 113.047 128.92 112.673 128.667 112.42C128.427 112.167 128.073 112.04 127.607 112.04C127.153 112.04 126.7 112.147 126.247 112.36C125.793 112.56 125.293 112.88 124.747 113.32L124.587 113.22L124.327 111.8C125.5 111 126.7 110.6 127.927 110.6ZM126.427 116.42C126.187 116.473 126.013 116.567 125.907 116.7C125.8 116.82 125.747 117.013 125.747 117.28C125.747 117.68 125.853 117.993 126.067 118.22C126.293 118.447 126.593 118.56 126.967 118.56C127.593 118.56 128.26 118.153 128.967 117.34L129.027 115.8L126.427 116.42ZM140.563 115.96L140.643 120H138.643L138.703 116.14L138.683 112.14H136.583L136.503 112.8C136.303 114.667 136.076 116.107 135.823 117.12C135.583 118.133 135.276 118.873 134.903 119.34C134.543 119.793 134.063 120.073 133.463 120.18L132.983 120.2L132.663 118.64C133.156 118.48 133.543 118.207 133.823 117.82C134.103 117.42 134.329 116.813 134.503 116C134.676 115.187 134.836 114.007 134.983 112.46L135.163 110.82L135.143 110.78H140.663L140.563 115.96ZM147.497 114.34C148.497 114.34 149.257 114.553 149.777 114.98C150.31 115.407 150.577 116.027 150.577 116.84C150.577 117.84 150.21 118.62 149.477 119.18C148.743 119.727 147.723 120 146.417 120H143.477L143.557 116.14L143.497 110.78H145.497L145.437 114.34H147.497ZM146.957 118.74C147.503 118.66 147.923 118.48 148.217 118.2C148.51 117.907 148.657 117.527 148.657 117.06C148.657 116.58 148.503 116.207 148.197 115.94C147.903 115.673 147.483 115.547 146.937 115.56L145.417 115.58V115.96L145.457 118.7L146.957 118.74ZM159.908 115.96L159.968 120H157.968L158.048 116.14L156.008 116.12L154.088 116.16L154.148 120H152.148L152.228 116.14L152.168 110.78H154.168L154.108 114.62L156.088 114.64H158.028L158.008 110.78H159.988L159.908 115.96ZM172.672 115.96L172.732 120H170.732L170.812 116.14L170.752 110.92L172.752 110.74L172.672 115.96ZM166.692 114.34C167.639 114.34 168.359 114.553 168.852 114.98C169.359 115.407 169.612 116.027 169.612 116.84C169.612 117.84 169.265 118.62 168.572 119.18C167.879 119.727 166.912 120 165.672 120H162.832L162.912 116.14L162.852 110.78H164.852L164.792 114.34H166.692ZM166.192 118.74C166.672 118.66 167.039 118.48 167.292 118.2C167.545 117.907 167.672 117.527 167.672 117.06C167.672 116.58 167.539 116.207 167.272 115.94C167.005 115.673 166.632 115.547 166.152 115.56L164.772 115.58V115.96L164.812 118.7L166.192 118.74ZM182.382 115.48L176.762 115.5C176.775 116.513 177.022 117.287 177.502 117.82C177.982 118.34 178.662 118.6 179.542 118.6C180.462 118.6 181.362 118.327 182.242 117.78L182.442 117.9L182.142 119.54C181.168 119.967 180.222 120.18 179.302 120.18C177.928 120.18 176.848 119.76 176.062 118.92C175.288 118.067 174.902 116.907 174.902 115.44C174.902 113.96 175.288 112.787 176.062 111.92C176.835 111.053 177.882 110.62 179.202 110.62C180.322 110.62 181.182 110.927 181.782 111.54C182.395 112.153 182.702 113.02 182.702 114.14C182.702 114.447 182.668 114.813 182.602 115.24L182.382 115.48ZM180.862 113.9C180.862 113.273 180.715 112.8 180.422 112.48C180.142 112.16 179.728 112 179.182 112C178.568 112 178.062 112.2 177.662 112.6C177.262 112.987 176.995 113.54 176.862 114.26L180.822 114.18L180.862 113.9ZM195.742 116.56L195.822 120H193.802L193.902 116.76L193.842 112.22H190.242L190.182 116.56L190.242 120H188.242L188.322 116.76L188.262 110.78H195.822L195.742 116.56ZM203.288 110.68C204.435 110.68 205.315 111.067 205.928 111.84C206.555 112.6 206.868 113.693 206.868 115.12C206.868 116.733 206.475 117.98 205.688 118.86C204.901 119.74 203.781 120.18 202.328 120.18C201.861 120.18 201.341 120.127 200.768 120.02L200.828 123.7H198.808L198.948 116.14L198.808 110.92L200.768 110.74L200.748 112.06H200.888C201.315 111.687 201.708 111.4 202.068 111.2C202.428 111 202.835 110.827 203.288 110.68ZM202.488 118.78C203.288 118.78 203.901 118.493 204.328 117.92C204.755 117.347 204.968 116.527 204.968 115.46C204.968 114.447 204.795 113.673 204.448 113.14C204.101 112.593 203.601 112.32 202.948 112.32C202.588 112.32 202.228 112.42 201.868 112.62C201.521 112.807 201.141 113.107 200.728 113.52L200.708 115.96L200.748 118.34C201.375 118.633 201.955 118.78 202.488 118.78ZM215.702 115.48L210.082 115.5C210.095 116.513 210.342 117.287 210.822 117.82C211.302 118.34 211.982 118.6 212.862 118.6C213.782 118.6 214.682 118.327 215.562 117.78L215.762 117.9L215.462 119.54C214.489 119.967 213.542 120.18 212.622 120.18C211.249 120.18 210.169 119.76 209.382 118.92C208.609 118.067 208.222 116.907 208.222 115.44C208.222 113.96 208.609 112.787 209.382 111.92C210.155 111.053 211.202 110.62 212.522 110.62C213.642 110.62 214.502 110.927 215.102 111.54C215.715 112.153 216.022 113.02 216.022 114.14C216.022 114.447 215.989 114.813 215.922 115.24L215.702 115.48ZM214.182 113.9C214.182 113.273 214.035 112.8 213.742 112.48C213.462 112.16 213.049 112 212.502 112C211.889 112 211.382 112.2 210.982 112.6C210.582 112.987 210.315 113.54 210.182 114.26L214.142 114.18L214.182 113.9ZM226.579 118.54V122.2L225.239 122.32L224.999 120H218.619L218.379 122.2L217.039 122.32V118.54H217.779C218.179 118.287 218.493 117.947 218.719 117.52C218.946 117.093 219.126 116.5 219.259 115.74C219.406 114.967 219.553 113.873 219.699 112.46L219.879 110.78H225.339L225.259 115.96L225.299 118.54H226.579ZM223.459 116.14L223.399 112.12H221.319L221.239 112.78C221.079 114.473 220.873 115.753 220.619 116.62C220.379 117.473 220.033 118.113 219.579 118.54H223.419L223.459 116.14ZM232.15 110.6C232.577 110.6 233.01 110.647 233.45 110.74C233.89 110.833 234.277 110.96 234.61 111.12L234.27 112.82L234.07 112.9C233.363 112.487 232.71 112.28 232.11 112.28C231.403 112.28 230.85 112.547 230.45 113.08C230.05 113.613 229.85 114.36 229.85 115.32C229.85 116.347 230.057 117.147 230.47 117.72C230.883 118.28 231.47 118.56 232.23 118.56C232.897 118.56 233.61 118.36 234.37 117.96L234.55 118.08L234.35 119.72C233.537 120.027 232.723 120.18 231.91 120.18C230.657 120.18 229.677 119.767 228.97 118.94C228.277 118.1 227.93 116.947 227.93 115.48C227.93 113.96 228.303 112.767 229.05 111.9C229.797 111.033 230.83 110.6 232.15 110.6ZM242.836 110.92L242.716 112.24L240.956 112.2H240.036L239.976 115.96L240.036 120H238.056L238.116 116.14L238.076 112.2H237.136L235.356 112.24L235.256 112.1L235.356 110.78H242.716L242.836 110.92ZM247.477 110.6C248.397 110.6 249.124 110.82 249.657 111.26C250.191 111.7 250.457 112.313 250.457 113.1C250.457 113.34 250.417 114.14 250.337 115.5C250.257 116.833 250.217 117.613 250.217 117.84C250.217 118.093 250.257 118.273 250.337 118.38C250.431 118.473 250.584 118.52 250.797 118.52C250.931 118.52 251.131 118.493 251.397 118.44L251.577 118.58L251.377 119.7C250.991 119.94 250.571 120.087 250.117 120.14C249.704 120.1 249.371 119.953 249.117 119.7C248.864 119.433 248.711 119.087 248.657 118.66H248.517C247.837 119.38 247.144 119.88 246.437 120.16C245.517 120.147 244.791 119.907 244.257 119.44C243.737 118.973 243.477 118.34 243.477 117.54C243.477 116.353 244.124 115.613 245.417 115.32L248.577 114.62L248.597 113.54C248.597 113.047 248.471 112.673 248.217 112.42C247.977 112.167 247.624 112.04 247.157 112.04C246.704 112.04 246.251 112.147 245.797 112.36C245.344 112.56 244.844 112.88 244.297 113.32L244.137 113.22L243.877 111.8C245.051 111 246.251 110.6 247.477 110.6ZM245.977 116.42C245.737 116.473 245.564 116.567 245.457 116.7C245.351 116.82 245.297 117.013 245.297 117.28C245.297 117.68 245.404 117.993 245.617 118.22C245.844 118.447 246.144 118.56 246.517 118.56C247.144 118.56 247.811 118.153 248.517 117.34L248.577 115.8L245.977 116.42ZM258.678 115.22C259.985 115.513 260.638 116.233 260.638 117.38C260.638 118.3 260.272 118.98 259.538 119.42C258.818 119.847 257.745 120.06 256.318 120.06C255.398 120.06 254.425 120.04 253.398 120L253.478 116.14L253.418 110.78L256.998 110.76C258.038 110.76 258.838 110.96 259.398 111.36C259.958 111.747 260.238 112.307 260.238 113.04C260.238 113.52 260.105 113.947 259.838 114.32C259.572 114.693 259.185 114.993 258.678 115.22ZM258.378 113.28C258.378 112.853 258.212 112.533 257.878 112.32C257.545 112.107 257.032 112 256.338 112C255.898 112 255.558 112.007 255.318 112.02L255.258 114.72L256.978 114.78C257.432 114.687 257.778 114.513 258.018 114.26C258.258 114.007 258.378 113.68 258.378 113.28ZM256.538 118.86C257.258 118.86 257.812 118.727 258.198 118.46C258.585 118.193 258.778 117.807 258.778 117.3C258.778 116.54 258.258 116.093 257.218 115.96L255.238 115.98L255.278 118.8C255.705 118.84 256.125 118.86 256.538 118.86ZM262.775 116.14L262.695 110.82L264.675 110.74L264.635 117.18H264.755L268.455 110.78H270.455L270.375 115.9L270.455 120H268.475L268.535 116.28L268.555 113.48H268.415L264.655 120H262.695L262.775 116.14ZM279.282 110.92L279.162 112.24L277.402 112.2H276.482L276.422 115.96L276.482 120H274.502L274.562 116.14L274.522 112.2H273.582L271.802 112.24L271.702 112.1L271.802 110.78H279.162L279.282 110.92ZM287.186 115.48L281.566 115.5C281.58 116.513 281.826 117.287 282.306 117.82C282.786 118.34 283.466 118.6 284.346 118.6C285.266 118.6 286.166 118.327 287.046 117.78L287.246 117.9L286.946 119.54C285.973 119.967 285.026 120.18 284.106 120.18C282.733 120.18 281.653 119.76 280.866 118.92C280.093 118.067 279.706 116.907 279.706 115.44C279.706 113.96 280.093 112.787 280.866 111.92C281.64 111.053 282.686 110.62 284.006 110.62C285.126 110.62 285.986 110.927 286.586 111.54C287.2 112.153 287.506 113.02 287.506 114.14C287.506 114.447 287.473 114.813 287.406 115.24L287.186 115.48ZM285.666 113.9C285.666 113.273 285.52 112.8 285.226 112.48C284.946 112.16 284.533 112 283.986 112C283.373 112 282.866 112.2 282.466 112.6C282.066 112.987 281.8 113.54 281.666 114.26L285.626 114.18L285.666 113.9ZM296.344 115.96L296.424 120H294.424L294.484 116.14L294.464 112.14H292.364L292.284 112.8C292.084 114.667 291.857 116.107 291.604 117.12C291.364 118.133 291.057 118.873 290.684 119.34C290.324 119.793 289.844 120.073 289.244 120.18L288.764 120.2L288.444 118.64C288.937 118.48 289.324 118.207 289.604 117.82C289.884 117.42 290.11 116.813 290.284 116C290.457 115.187 290.617 114.007 290.764 112.46L290.944 110.82L290.924 110.78H296.444L296.344 115.96ZM299.338 116.14L299.258 110.82L301.238 110.74L301.198 117.18H301.318L305.018 110.78H307.018L306.938 115.9L307.018 120H305.038L305.098 116.28L305.118 113.48H304.978L301.218 120H299.258L299.338 116.14ZM74.3251 139.48L68.7051 139.5C68.7184 140.513 68.9651 141.287 69.4451 141.82C69.9251 142.34 70.6051 142.6 71.4851 142.6C72.4051 142.6 73.3051 142.327 74.1851 141.78L74.3851 141.9L74.0851 143.54C73.1117 143.967 72.1651 144.18 71.2451 144.18C69.8717 144.18 68.7917 143.76 68.0051 142.92C67.2317 142.067 66.8451 140.907 66.8451 139.44C66.8451 137.96 67.2317 136.787 68.0051 135.92C68.7784 135.053 69.8251 134.62 71.1451 134.62C72.2651 134.62 73.1251 134.927 73.7251 135.54C74.3384 136.153 74.6451 137.02 74.6451 138.14C74.6451 138.447 74.6117 138.813 74.5451 139.24L74.3251 139.48ZM72.8051 137.9C72.8051 137.273 72.6584 136.8 72.3651 136.48C72.0851 136.16 71.6717 136 71.1251 136C70.5117 136 70.0051 136.2 69.6051 136.6C69.2051 136.987 68.9384 137.54 68.8051 138.26L72.7651 138.18L72.8051 137.9ZM82.2624 139.22C83.5691 139.513 84.2224 140.233 84.2224 141.38C84.2224 142.3 83.8558 142.98 83.1224 143.42C82.4024 143.847 81.3291 144.06 79.9024 144.06C78.9824 144.06 78.0091 144.04 76.9824 144L77.0624 140.14L77.0024 134.78L80.5824 134.76C81.6224 134.76 82.4224 134.96 82.9824 135.36C83.5424 135.747 83.8224 136.307 83.8224 137.04C83.8224 137.52 83.6891 137.947 83.4224 138.32C83.1558 138.693 82.7691 138.993 82.2624 139.22ZM81.9624 137.28C81.9624 136.853 81.7958 136.533 81.4624 136.32C81.1291 136.107 80.6158 136 79.9224 136C79.4824 136 79.1424 136.007 78.9024 136.02L78.8424 138.72L80.5624 138.78C81.0158 138.687 81.3624 138.513 81.6024 138.26C81.8424 138.007 81.9624 137.68 81.9624 137.28ZM80.1224 142.86C80.8424 142.86 81.3958 142.727 81.7824 142.46C82.1691 142.193 82.3624 141.807 82.3624 141.3C82.3624 140.54 81.8424 140.093 80.8024 139.96L78.8224 139.98L78.8624 142.8C79.2891 142.84 79.7091 142.86 80.1224 142.86ZM90.8955 134.68C92.0422 134.68 92.9222 135.067 93.5355 135.84C94.1622 136.6 94.4755 137.693 94.4755 139.12C94.4755 140.733 94.0822 141.98 93.2955 142.86C92.5089 143.74 91.3889 144.18 89.9355 144.18C89.4689 144.18 88.9489 144.127 88.3755 144.02L88.4355 147.7H86.4155L86.5555 140.14L86.4155 134.92L88.3755 134.74L88.3555 136.06H88.4955C88.9222 135.687 89.3155 135.4 89.6755 135.2C90.0355 135 90.4422 134.827 90.8955 134.68ZM90.0955 142.78C90.8955 142.78 91.5089 142.493 91.9355 141.92C92.3622 141.347 92.5755 140.527 92.5755 139.46C92.5755 138.447 92.4022 137.673 92.0555 137.14C91.7089 136.593 91.2089 136.32 90.5555 136.32C90.1955 136.32 89.8355 136.42 89.4755 136.62C89.1289 136.807 88.7489 137.107 88.3355 137.52L88.3155 139.96L88.3555 142.34C88.9822 142.633 89.5622 142.78 90.0955 142.78ZM100.189 134.6C101.483 134.6 102.476 135.007 103.169 135.82C103.876 136.62 104.229 137.76 104.229 139.24C104.229 140.827 103.856 142.047 103.109 142.9C102.363 143.753 101.303 144.18 99.9295 144.18C98.6361 144.18 97.6361 143.78 96.9295 142.98C96.2361 142.167 95.8895 141.02 95.8895 139.54C95.8895 137.953 96.2628 136.733 97.0095 135.88C97.7561 135.027 98.8161 134.6 100.189 134.6ZM100.069 136.02C98.5495 136.02 97.7895 137.047 97.7895 139.1C97.7895 140.353 97.9761 141.28 98.3495 141.88C98.7228 142.48 99.2961 142.78 100.069 142.78C100.829 142.78 101.396 142.527 101.769 142.02C102.143 141.513 102.329 140.74 102.329 139.7C102.329 138.447 102.143 137.52 101.769 136.92C101.396 136.32 100.829 136.02 100.069 136.02ZM113.76 140.56L113.84 144H111.82L111.92 140.76L111.86 136.22H108.26L108.2 140.56L108.26 144H106.26L106.34 140.76L106.28 134.78H113.84L113.76 140.56ZM123.466 139.48L117.846 139.5C117.859 140.513 118.106 141.287 118.586 141.82C119.066 142.34 119.746 142.6 120.626 142.6C121.546 142.6 122.446 142.327 123.326 141.78L123.526 141.9L123.226 143.54C122.252 143.967 121.306 144.18 120.386 144.18C119.012 144.18 117.932 143.76 117.146 142.92C116.372 142.067 115.986 140.907 115.986 139.44C115.986 137.96 116.372 136.787 117.146 135.92C117.919 135.053 118.966 134.62 120.286 134.62C121.406 134.62 122.266 134.927 122.866 135.54C123.479 136.153 123.786 137.02 123.786 138.14C123.786 138.447 123.752 138.813 123.686 139.24L123.466 139.48ZM121.946 137.9C121.946 137.273 121.799 136.8 121.506 136.48C121.226 136.16 120.812 136 120.266 136C119.652 136 119.146 136.2 118.746 136.6C118.346 136.987 118.079 137.54 117.946 138.26L121.906 138.18L121.946 137.9ZM126.203 140.14L126.123 134.82L128.103 134.74L128.063 141.18H128.183L131.883 134.78H133.883L133.803 139.9L133.883 144H131.903L131.963 140.28L131.983 137.48H131.843L128.083 144H126.123L126.203 140.14ZM133.043 131.54C132.803 132.113 132.41 132.56 131.863 132.88C131.33 133.2 130.703 133.36 129.983 133.36C129.263 133.36 128.643 133.207 128.123 132.9C127.616 132.58 127.23 132.127 126.963 131.54L128.003 130.82H128.243C128.376 131.273 128.583 131.607 128.863 131.82C129.156 132.02 129.543 132.12 130.023 132.12C130.503 132.12 130.876 132.027 131.143 131.84C131.41 131.64 131.623 131.3 131.783 130.82H132.003L133.043 131.54ZM140.285 134.6C140.711 134.6 141.145 134.647 141.585 134.74C142.025 134.833 142.411 134.96 142.745 135.12L142.405 136.82L142.205 136.9C141.498 136.487 140.845 136.28 140.245 136.28C139.538 136.28 138.985 136.547 138.585 137.08C138.185 137.613 137.985 138.36 137.985 139.32C137.985 140.347 138.191 141.147 138.605 141.72C139.018 142.28 139.605 142.56 140.365 142.56C141.031 142.56 141.745 142.36 142.505 141.96L142.685 142.08L142.485 143.72C141.671 144.027 140.858 144.18 140.045 144.18C138.791 144.18 137.811 143.767 137.105 142.94C136.411 142.1 136.065 140.947 136.065 139.48C136.065 137.96 136.438 136.767 137.185 135.9C137.931 135.033 138.965 134.6 140.285 134.6ZM144.855 140.14L144.795 134.92L146.795 134.74L146.715 139.96L146.775 144H144.775L144.855 140.14ZM148.935 138.98C150.055 140.527 151.268 142.08 152.575 143.64L152.555 143.88C152.208 143.973 151.835 144.04 151.435 144.08C151.035 144.133 150.795 144.167 150.715 144.18L150.515 144.1C149.062 142.26 147.882 140.613 146.975 139.16V139.02L149.675 135.66L150.175 134.78H152.315L148.935 138.98ZM154.348 140.14L154.268 134.82L156.248 134.74L156.208 141.18H156.328L160.028 134.78H162.028L161.948 139.9L162.028 144H160.048L160.108 140.28L160.128 137.48H159.988L156.228 144H154.268L154.348 140.14ZM166.549 135.7L168.189 138.18L169.729 135.66L170.209 134.78H172.029L169.269 139.3L172.209 143.92L170.069 144.1L169.629 143.06L167.929 140.48L166.229 143.16L165.809 144H163.989L166.809 139.34L163.989 134.84L166.149 134.72L166.549 135.7ZM177.375 140.14L177.295 134.82L179.275 134.74L179.235 141.18H179.355L183.055 134.78H185.055L184.975 139.9L185.055 144H183.075L183.135 140.28L183.155 137.48H183.015L179.255 144H177.295L177.375 140.14ZM194.46 134.6C195.38 134.6 196.106 134.82 196.64 135.26C197.173 135.7 197.44 136.313 197.44 137.1C197.44 137.34 197.4 138.14 197.32 139.5C197.24 140.833 197.2 141.613 197.2 141.84C197.2 142.093 197.24 142.273 197.32 142.38C197.413 142.473 197.566 142.52 197.78 142.52C197.913 142.52 198.113 142.493 198.38 142.44L198.56 142.58L198.36 143.7C197.973 143.94 197.553 144.087 197.1 144.14C196.686 144.1 196.353 143.953 196.1 143.7C195.846 143.433 195.693 143.087 195.64 142.66H195.5C194.82 143.38 194.126 143.88 193.42 144.16C192.5 144.147 191.773 143.907 191.24 143.44C190.72 142.973 190.46 142.34 190.46 141.54C190.46 140.353 191.106 139.613 192.4 139.32L195.56 138.62L195.58 137.54C195.58 137.047 195.453 136.673 195.2 136.42C194.96 136.167 194.606 136.04 194.14 136.04C193.686 136.04 193.233 136.147 192.78 136.36C192.326 136.56 191.826 136.88 191.28 137.32L191.12 137.22L190.86 135.8C192.033 135 193.233 134.6 194.46 134.6ZM192.96 140.42C192.72 140.473 192.546 140.567 192.44 140.7C192.333 140.82 192.28 141.013 192.28 141.28C192.28 141.68 192.386 141.993 192.6 142.22C192.826 142.447 193.126 142.56 193.5 142.56C194.126 142.56 194.793 142.153 195.5 141.34L195.56 139.8L192.96 140.42ZM200.921 134.78H202.941L203.381 136.16L205.001 140.7H205.141L206.901 136.16L207.361 134.78H209.341L210.201 144H208.581L208.421 141.12L208.081 137.44H207.941L205.681 143.02H204.281L202.201 137.44H202.081L201.701 140.86L201.461 144H199.921L200.921 134.78ZM219.442 139.48L213.822 139.5C213.836 140.513 214.082 141.287 214.562 141.82C215.042 142.34 215.722 142.6 216.602 142.6C217.522 142.6 218.422 142.327 219.302 141.78L219.502 141.9L219.202 143.54C218.229 143.967 217.282 144.18 216.362 144.18C214.989 144.18 213.909 143.76 213.122 142.92C212.349 142.067 211.962 140.907 211.962 139.44C211.962 137.96 212.349 136.787 213.122 135.92C213.896 135.053 214.942 134.62 216.262 134.62C217.382 134.62 218.242 134.927 218.842 135.54C219.456 136.153 219.762 137.02 219.762 138.14C219.762 138.447 219.729 138.813 219.662 139.24L219.442 139.48ZM217.922 137.9C217.922 137.273 217.776 136.8 217.482 136.48C217.202 136.16 216.789 136 216.242 136C215.629 136 215.122 136.2 214.722 136.6C214.322 136.987 214.056 137.54 213.922 138.26L217.882 138.18L217.922 137.9ZM226.56 134.68C227.706 134.68 228.586 135.067 229.2 135.84C229.826 136.6 230.14 137.693 230.14 139.12C230.14 140.733 229.746 141.98 228.96 142.86C228.173 143.74 227.053 144.18 225.6 144.18C225.133 144.18 224.613 144.127 224.04 144.02L224.1 147.7H222.08L222.22 140.14L222.08 134.92L224.04 134.74L224.02 136.06H224.16C224.586 135.687 224.98 135.4 225.34 135.2C225.7 135 226.106 134.827 226.56 134.68ZM225.76 142.78C226.56 142.78 227.173 142.493 227.6 141.92C228.026 141.347 228.24 140.527 228.24 139.46C228.24 138.447 228.066 137.673 227.72 137.14C227.373 136.593 226.873 136.32 226.22 136.32C225.86 136.32 225.5 136.42 225.14 136.62C224.793 136.807 224.413 137.107 224 137.52L223.98 139.96L224.02 142.34C224.646 142.633 225.226 142.78 225.76 142.78ZM232.277 140.14L232.197 134.82L234.177 134.74L234.137 141.18H234.257L237.957 134.78H239.957L239.877 139.9L239.957 144H237.977L238.037 140.28L238.057 137.48H237.917L234.157 144H232.197L232.277 140.14ZM242.863 140.14L242.803 134.92L244.803 134.74L244.723 139.96L244.783 144H242.783L242.863 140.14ZM246.943 138.98C248.063 140.527 249.276 142.08 250.583 143.64L250.563 143.88C250.216 143.973 249.843 144.04 249.443 144.08C249.043 144.133 248.803 144.167 248.723 144.18L248.523 144.1C247.069 142.26 245.889 140.613 244.983 139.16V139.02L247.683 135.66L248.183 134.78H250.323L246.943 138.98ZM255.124 134.6C256.044 134.6 256.77 134.82 257.304 135.26C257.837 135.7 258.104 136.313 258.104 137.1C258.104 137.34 258.064 138.14 257.984 139.5C257.904 140.833 257.864 141.613 257.864 141.84C257.864 142.093 257.904 142.273 257.984 142.38C258.077 142.473 258.23 142.52 258.444 142.52C258.577 142.52 258.777 142.493 259.044 142.44L259.224 142.58L259.024 143.7C258.637 143.94 258.217 144.087 257.764 144.14C257.35 144.1 257.017 143.953 256.764 143.7C256.51 143.433 256.357 143.087 256.304 142.66H256.164C255.484 143.38 254.79 143.88 254.084 144.16C253.164 144.147 252.437 143.907 251.904 143.44C251.384 142.973 251.124 142.34 251.124 141.54C251.124 140.353 251.77 139.613 253.064 139.32L256.224 138.62L256.244 137.54C256.244 137.047 256.117 136.673 255.864 136.42C255.624 136.167 255.27 136.04 254.804 136.04C254.35 136.04 253.897 136.147 253.444 136.36C252.99 136.56 252.49 136.88 251.944 137.32L251.784 137.22L251.524 135.8C252.697 135 253.897 134.6 255.124 134.6ZM253.624 140.42C253.384 140.473 253.21 140.567 253.104 140.7C252.997 140.82 252.944 141.013 252.944 141.28C252.944 141.68 253.05 141.993 253.264 142.22C253.49 142.447 253.79 142.56 254.164 142.56C254.79 142.56 255.457 142.153 256.164 141.34L256.224 139.8L253.624 140.42ZM268.805 139.96L268.865 144H266.865L266.945 140.14L264.905 140.12L262.985 140.16L263.045 144H261.045L261.125 140.14L261.065 134.78H263.065L263.005 138.62L264.985 138.64H266.925L266.905 134.78H268.885L268.805 139.96ZM275.285 134.6C275.711 134.6 276.145 134.647 276.585 134.74C277.025 134.833 277.411 134.96 277.745 135.12L277.405 136.82L277.205 136.9C276.498 136.487 275.845 136.28 275.245 136.28C274.538 136.28 273.985 136.547 273.585 137.08C273.185 137.613 272.985 138.36 272.985 139.32C272.985 140.347 273.191 141.147 273.605 141.72C274.018 142.28 274.605 142.56 275.365 142.56C276.031 142.56 276.745 142.36 277.505 141.96L277.685 142.08L277.485 143.72C276.671 144.027 275.858 144.18 275.045 144.18C273.791 144.18 272.811 143.767 272.105 142.94C271.411 142.1 271.065 140.947 271.065 139.48C271.065 137.96 271.438 136.767 272.185 135.9C272.931 135.033 273.965 134.6 275.285 134.6ZM279.855 140.14L279.795 134.92L281.795 134.74L281.715 139.96L281.775 144H279.775L279.855 140.14ZM283.935 138.98C285.055 140.527 286.268 142.08 287.575 143.64L287.555 143.88C287.208 143.973 286.835 144.04 286.435 144.08C286.035 144.133 285.795 144.167 285.715 144.18L285.515 144.1C284.062 142.26 282.882 140.613 281.975 139.16V139.02L284.675 135.66L285.175 134.78H287.315L283.935 138.98ZM289.348 140.14L289.268 134.82L291.248 134.74L291.208 141.18H291.328L295.028 134.78H297.028L296.948 139.9L297.028 144H295.048L295.108 140.28L295.128 137.48H294.988L291.228 144H289.268L289.348 140.14ZM301.549 135.7L303.189 138.18L304.729 135.66L305.209 134.78H307.029L304.269 139.3L307.209 143.92L305.069 144.1L304.629 143.06L302.929 140.48L301.229 143.16L300.809 144H298.989L301.809 139.34L298.989 134.84L301.149 134.72L301.549 135.7ZM129.941 164.56L130.021 168H128.001L128.101 164.76L128.041 160.22H124.441L124.381 164.56L124.441 168H122.441L122.521 164.76L122.461 158.78H130.021L129.941 164.56ZM137.487 158.68C138.634 158.68 139.514 159.067 140.127 159.84C140.754 160.6 141.067 161.693 141.067 163.12C141.067 164.733 140.674 165.98 139.887 166.86C139.101 167.74 137.981 168.18 136.527 168.18C136.061 168.18 135.541 168.127 134.967 168.02L135.027 171.7H133.007L133.147 164.14L133.007 158.92L134.967 158.74L134.947 160.06H135.087C135.514 159.687 135.907 159.4 136.267 159.2C136.627 159 137.034 158.827 137.487 158.68ZM136.687 166.78C137.487 166.78 138.101 166.493 138.527 165.92C138.954 165.347 139.167 164.527 139.167 163.46C139.167 162.447 138.994 161.673 138.647 161.14C138.301 160.593 137.801 160.32 137.147 160.32C136.787 160.32 136.427 160.42 136.067 160.62C135.721 160.807 135.341 161.107 134.927 161.52L134.907 163.96L134.947 166.34C135.574 166.633 136.154 166.78 136.687 166.78ZM146.781 158.6C148.075 158.6 149.068 159.007 149.761 159.82C150.468 160.62 150.821 161.76 150.821 163.24C150.821 164.827 150.448 166.047 149.701 166.9C148.955 167.753 147.895 168.18 146.521 168.18C145.228 168.18 144.228 167.78 143.521 166.98C142.828 166.167 142.481 165.02 142.481 163.54C142.481 161.953 142.855 160.733 143.601 159.88C144.348 159.027 145.408 158.6 146.781 158.6ZM146.661 160.02C145.141 160.02 144.381 161.047 144.381 163.1C144.381 164.353 144.568 165.28 144.941 165.88C145.315 166.48 145.888 166.78 146.661 166.78C147.421 166.78 147.988 166.527 148.361 166.02C148.735 165.513 148.921 164.74 148.921 163.7C148.921 162.447 148.735 161.52 148.361 160.92C147.988 160.32 147.421 160.02 146.661 160.02ZM152.932 164.14L152.852 158.82L154.832 158.74L154.792 165.18H154.912L158.612 158.78H160.612L160.532 163.9L160.612 168H158.632L158.692 164.28L158.712 161.48H158.572L154.812 168H152.852L152.932 164.14ZM167.612 163.22C168.866 163.54 169.492 164.26 169.492 165.38C169.492 166.247 169.152 166.927 168.472 167.42C167.792 167.9 166.852 168.14 165.652 168.14C165.132 168.14 164.632 168.087 164.152 167.98C163.672 167.873 163.266 167.727 162.932 167.54L163.272 166.02L163.412 165.96C163.706 166.16 164.052 166.32 164.452 166.44C164.852 166.547 165.246 166.6 165.632 166.6C166.232 166.6 166.712 166.473 167.072 166.22C167.446 165.967 167.632 165.633 167.632 165.22C167.632 164.913 167.526 164.653 167.312 164.44C167.112 164.227 166.819 164.08 166.432 164H164.372L164.232 163.86L164.352 162.6L166.292 162.62C166.572 162.5 166.792 162.327 166.952 162.1C167.126 161.86 167.212 161.593 167.212 161.3C167.212 160.593 166.686 160.24 165.632 160.24C164.912 160.24 164.132 160.433 163.292 160.82L163.092 160.74L163.232 159.2C164.006 158.853 164.839 158.68 165.732 158.68C166.786 158.68 167.606 158.887 168.192 159.3C168.792 159.713 169.092 160.28 169.092 161C169.092 161.493 168.959 161.933 168.692 162.32C168.439 162.707 168.079 163.007 167.612 163.22ZM176.862 163.22C178.169 163.513 178.822 164.233 178.822 165.38C178.822 166.3 178.455 166.98 177.722 167.42C177.002 167.847 175.929 168.06 174.502 168.06C173.582 168.06 172.609 168.04 171.582 168L171.662 164.14L171.602 158.78L175.182 158.76C176.222 158.76 177.022 158.96 177.582 159.36C178.142 159.747 178.422 160.307 178.422 161.04C178.422 161.52 178.289 161.947 178.022 162.32C177.755 162.693 177.369 162.993 176.862 163.22ZM176.562 161.28C176.562 160.853 176.395 160.533 176.062 160.32C175.729 160.107 175.215 160 174.522 160C174.082 160 173.742 160.007 173.502 160.02L173.442 162.72L175.162 162.78C175.615 162.687 175.962 162.513 176.202 162.26C176.442 162.007 176.562 161.68 176.562 161.28ZM174.722 166.86C175.442 166.86 175.995 166.727 176.382 166.46C176.769 166.193 176.962 165.807 176.962 165.3C176.962 164.54 176.442 164.093 175.402 163.96L173.422 163.98L173.462 166.8C173.889 166.84 174.309 166.86 174.722 166.86ZM184.535 158.6C185.828 158.6 186.822 159.007 187.515 159.82C188.222 160.62 188.575 161.76 188.575 163.24C188.575 164.827 188.202 166.047 187.455 166.9C186.708 167.753 185.648 168.18 184.275 168.18C182.982 168.18 181.982 167.78 181.275 166.98C180.582 166.167 180.235 165.02 180.235 163.54C180.235 161.953 180.608 160.733 181.355 159.88C182.102 159.027 183.162 158.6 184.535 158.6ZM184.415 160.02C182.895 160.02 182.135 161.047 182.135 163.1C182.135 164.353 182.322 165.28 182.695 165.88C183.068 166.48 183.642 166.78 184.415 166.78C185.175 166.78 185.742 166.527 186.115 166.02C186.488 165.513 186.675 164.74 186.675 163.7C186.675 162.447 186.488 161.52 186.115 160.92C185.742 160.32 185.175 160.02 184.415 160.02ZM198.786 166.54V170.2L197.446 170.32L197.206 168H190.826L190.586 170.2L189.246 170.32V166.54H189.986C190.386 166.287 190.7 165.947 190.926 165.52C191.153 165.093 191.333 164.5 191.466 163.74C191.613 162.967 191.76 161.873 191.906 160.46L192.086 158.78H197.546L197.466 163.96L197.506 166.54H198.786ZM195.666 164.14L195.606 160.12H193.526L193.446 160.78C193.286 162.473 193.08 163.753 192.826 164.62C192.586 165.473 192.24 166.113 191.786 166.54H195.626L195.666 164.14ZM200.881 164.14L200.801 158.82L202.781 158.74L202.741 165.18H202.861L206.561 158.78H208.561L208.481 163.9L208.561 168H206.581L206.641 164.28L206.661 161.48H206.521L202.761 168H200.801L200.881 164.14ZM217.387 158.92L217.267 160.24L215.507 160.2H214.587L214.527 163.96L214.587 168H212.607L212.667 164.14L212.627 160.2H211.687L209.907 160.24L209.807 160.1L209.907 158.78H217.267L217.387 158.92ZM225.292 163.48L219.672 163.5C219.685 164.513 219.932 165.287 220.412 165.82C220.892 166.34 221.572 166.6 222.452 166.6C223.372 166.6 224.272 166.327 225.152 165.78L225.352 165.9L225.052 167.54C224.079 167.967 223.132 168.18 222.212 168.18C220.839 168.18 219.759 167.76 218.972 166.92C218.199 166.067 217.812 164.907 217.812 163.44C217.812 161.96 218.199 160.787 218.972 159.92C219.745 159.053 220.792 158.62 222.112 158.62C223.232 158.62 224.092 158.927 224.692 159.54C225.305 160.153 225.612 161.02 225.612 162.14C225.612 162.447 225.579 162.813 225.512 163.24L225.292 163.48ZM223.772 161.9C223.772 161.273 223.625 160.8 223.332 160.48C223.052 160.16 222.639 160 222.092 160C221.479 160 220.972 160.2 220.572 160.6C220.172 160.987 219.905 161.54 219.772 162.26L223.732 162.18L223.772 161.9ZM234.449 163.96L234.529 168H232.529L232.589 164.14L232.569 160.14H230.469L230.389 160.8C230.189 162.667 229.963 164.107 229.709 165.12C229.469 166.133 229.163 166.873 228.789 167.34C228.429 167.793 227.949 168.073 227.349 168.18L226.869 168.2L226.549 166.64C227.043 166.48 227.429 166.207 227.709 165.82C227.989 165.42 228.216 164.813 228.389 164C228.563 163.187 228.723 162.007 228.869 160.46L229.049 158.82L229.029 158.78H234.549L234.449 163.96ZM244.14 163.48L238.52 163.5C238.533 164.513 238.78 165.287 239.26 165.82C239.74 166.34 240.42 166.6 241.3 166.6C242.22 166.6 243.12 166.327 244 165.78L244.2 165.9L243.9 167.54C242.926 167.967 241.98 168.18 241.06 168.18C239.686 168.18 238.606 167.76 237.82 166.92C237.046 166.067 236.66 164.907 236.66 163.44C236.66 161.96 237.046 160.787 237.82 159.92C238.593 159.053 239.64 158.62 240.96 158.62C242.08 158.62 242.94 158.927 243.54 159.54C244.153 160.153 244.46 161.02 244.46 162.14C244.46 162.447 244.426 162.813 244.36 163.24L244.14 163.48ZM242.62 161.9C242.62 161.273 242.473 160.8 242.18 160.48C241.9 160.16 241.486 160 240.94 160C240.326 160 239.82 160.2 239.42 160.6C239.02 160.987 238.753 161.54 238.62 162.26L242.58 162.18L242.62 161.9ZM246.877 164.14L246.797 158.82L248.777 158.74L248.737 165.18H248.857L252.557 158.78H254.557L254.477 163.9L254.557 168H252.577L252.637 164.28L252.657 161.48H252.517L248.757 168H246.797L246.877 164.14ZM253.717 155.54C253.477 156.113 253.084 156.56 252.537 156.88C252.004 157.2 251.377 157.36 250.657 157.36C249.937 157.36 249.317 157.207 248.797 156.9C248.29 156.58 247.904 156.127 247.637 155.54L248.677 154.82H248.917C249.05 155.273 249.257 155.607 249.537 155.82C249.83 156.02 250.217 156.12 250.697 156.12C251.177 156.12 251.55 156.027 251.817 155.84C252.084 155.64 252.297 155.3 252.457 154.82H252.677L253.717 155.54Z" fill="white"/>
<g opacity="0.9">
<rect x="159" y="23" width="64" height="64" rx="15" fill="white"/>
<path d="M183 53.6664L188.333 58.9997L200.333 46.9996M212.333 54.9997C212.333 68.0888 198.056 77.6088 192.861 80.6392C192.271 80.9837 191.976 81.156 191.559 81.2453C191.236 81.3146 190.764 81.3146 190.441 81.2453C190.024 81.156 189.729 80.9837 189.139 80.6392C183.944 77.6088 169.667 68.0888 169.667 54.9997V42.2466C169.667 40.1145 169.667 39.0485 170.015 38.1322C170.323 37.3227 170.824 36.6004 171.474 36.0277C172.209 35.3795 173.207 35.0052 175.204 34.2566L189.502 28.8947C190.056 28.6868 190.333 28.5829 190.619 28.5417C190.871 28.5051 191.129 28.5051 191.381 28.5417C191.667 28.5829 191.944 28.6868 192.498 28.8947L206.796 34.2566C208.793 35.0052 209.791 35.3795 210.526 36.0277C211.176 36.6004 211.677 37.3227 211.985 38.1322C212.333 39.0485 212.333 40.1145 212.333 42.2466V54.9997Z" stroke="black" stroke-width="5.33333" stroke-linecap="round" stroke-linejoin="round"/>
</g>
</svg>
