<svg width="372" height="245" viewBox="0 0 372 245" fill="none" xmlns="http://www.w3.org/2000/svg">
<rect opacity="0.85" width="372" height="245" rx="25" fill="#FD6816"/>
<g opacity="0.9">
<rect x="154" y="20" width="64" height="64" rx="15" fill="white"/>
<path d="M169.083 74.6107C168.7 74.9436 168.23 75.1604 167.728 75.2356C167.226 75.3108 166.713 75.2413 166.25 75.0352C165.786 74.8292 165.391 74.4951 165.111 74.0722C164.83 73.6494 164.676 73.1553 164.667 72.648V66.6667C163.252 66.6667 161.896 66.1048 160.895 65.1046C159.895 64.1044 159.333 62.7478 159.333 61.3334V42.6667C159.333 41.2522 159.895 39.8956 160.895 38.8955C161.896 37.8953 163.252 37.3334 164.667 37.3334H194C195.414 37.3334 196.771 37.8953 197.771 38.8955C198.771 39.8956 199.333 41.2522 199.333 42.6667V61.3334C199.333 62.7478 198.771 64.1044 197.771 65.1046C196.771 66.1048 195.414 66.6667 194 66.6667H180.675L169.083 74.6107ZM171.333 66.3627C171.576 66.3613 171.815 66.298 172.027 66.1787L178.307 61.8107C178.754 61.4999 179.285 61.3333 179.829 61.3334H191.333C192.041 61.3334 192.719 61.0524 193.219 60.5523C193.719 60.0522 194 59.3739 194 58.6667V45.3334C194 44.6261 193.719 43.9478 193.219 43.4477C192.719 42.9476 192.041 42.6667 191.333 42.6667H167.333C166.626 42.6667 165.948 42.9476 165.448 43.4477C164.948 43.9478 164.667 44.6261 164.667 45.3334V58.6667C164.667 60.1067 165.811 61.2854 167.333 61.3334C168.427 61.376 169.219 61.5547 169.584 61.936C169.925 62.2934 169.944 62.896 170 64.0427C170.008 64.2107 170.008 64.5147 170 65.0294C170 65.383 170.14 65.7221 170.391 65.9722C170.641 66.2222 170.98 66.3627 171.333 66.3627ZM202 53.376C201.991 53.7049 201.991 54.0339 202 54.3627V53.376C202.053 52.2294 202.075 51.6267 202.416 51.2694C202.781 50.888 203.573 50.7094 204.667 50.6667C206.189 50.6187 207.333 49.44 207.333 48V34.6667C207.333 33.9594 207.052 33.2812 206.552 32.7811C206.052 32.281 205.374 32 204.667 32H180.667C179.959 32 179.281 32.281 178.781 32.7811C178.281 33.2812 178 33.9594 178 34.6667H172.667V32C172.667 30.5855 173.229 29.229 174.229 28.2288C175.229 27.2286 176.586 26.6667 178 26.6667H207.333C208.748 26.6667 210.104 27.2286 211.105 28.2288C212.105 29.229 212.667 30.5855 212.667 32V50.6667C212.667 52.0812 212.105 53.4377 211.105 54.4379C210.104 55.4381 208.748 56 207.333 56V61.9814C207.324 62.4887 207.17 62.9827 206.889 63.4056C206.609 63.8284 206.214 64.1625 205.75 64.3686C205.287 64.5746 204.774 64.6441 204.272 64.5689C203.77 64.4937 203.3 64.277 202.917 63.944L202 63.3147V53.3787V53.376Z" fill="black"/>
</g>
<path opacity="0.95" d="M106.79 115.96L106.85 120H104.81L104.89 116.14L104.83 108.78H99.5102L99.4302 115.96L99.5102 120H97.4502L97.5502 116.14L97.4502 107.16H106.89L106.79 115.96ZM114.712 110.68C115.859 110.68 116.739 111.067 117.352 111.84C117.979 112.6 118.292 113.693 118.292 115.12C118.292 116.733 117.899 117.98 117.112 118.86C116.325 119.74 115.205 120.18 113.752 120.18C113.285 120.18 112.765 120.127 112.192 120.02L112.252 123.7H110.232L110.372 116.14L110.232 110.92L112.192 110.74L112.172 112.06H112.312C112.739 111.687 113.132 111.4 113.492 111.2C113.852 111 114.259 110.827 114.712 110.68ZM113.912 118.78C114.712 118.78 115.325 118.493 115.752 117.92C116.179 117.347 116.392 116.527 116.392 115.46C116.392 114.447 116.219 113.673 115.872 113.14C115.525 112.593 115.025 112.32 114.372 112.32C114.012 112.32 113.652 112.42 113.292 112.62C112.945 112.807 112.565 113.107 112.152 113.52L112.132 115.96L112.172 118.34C112.799 118.633 113.379 118.78 113.912 118.78ZM124.006 110.6C125.299 110.6 126.293 111.007 126.986 111.82C127.693 112.62 128.046 113.76 128.046 115.24C128.046 116.827 127.673 118.047 126.926 118.9C126.179 119.753 125.119 120.18 123.746 120.18C122.453 120.18 121.453 119.78 120.746 118.98C120.053 118.167 119.706 117.02 119.706 115.54C119.706 113.953 120.079 112.733 120.826 111.88C121.573 111.027 122.633 110.6 124.006 110.6ZM123.886 112.02C122.366 112.02 121.606 113.047 121.606 115.1C121.606 116.353 121.793 117.28 122.166 117.88C122.539 118.48 123.113 118.78 123.886 118.78C124.646 118.78 125.213 118.527 125.586 118.02C125.959 117.513 126.146 116.74 126.146 115.7C126.146 114.447 125.959 113.52 125.586 112.92C125.213 112.32 124.646 112.02 123.886 112.02ZM140.672 115.32C140.672 116.76 140.272 117.893 139.472 118.72C138.686 119.533 137.512 120.013 135.952 120.16L135.972 123.7H134.032L134.052 120.18C132.492 120.06 131.312 119.607 130.512 118.82C129.726 118.033 129.332 116.92 129.332 115.48C129.332 114.027 129.726 112.893 130.512 112.08C131.299 111.267 132.472 110.787 134.032 110.64L134.012 107.26L135.992 107.08L135.952 110.64C137.512 110.76 138.686 111.213 139.472 112C140.272 112.787 140.672 113.893 140.672 115.32ZM135.932 118.78C136.906 118.647 137.619 118.3 138.072 117.74C138.539 117.18 138.772 116.387 138.772 115.36C138.772 114.36 138.546 113.593 138.092 113.06C137.639 112.527 136.926 112.207 135.952 112.1L135.912 115.9L135.932 118.78ZM131.212 115.38C131.212 116.407 131.439 117.2 131.892 117.76C132.359 118.32 133.079 118.66 134.052 118.78L134.072 116.14L134.052 112.1C133.066 112.22 132.346 112.547 131.892 113.08C131.439 113.6 131.212 114.367 131.212 115.38ZM153.192 115.32C153.192 116.76 152.792 117.893 151.992 118.72C151.205 119.533 150.032 120.013 148.472 120.16L148.492 123.7H146.552L146.572 120.18C145.012 120.06 143.832 119.607 143.032 118.82C142.245 118.033 141.852 116.92 141.852 115.48C141.852 114.027 142.245 112.893 143.032 112.08C143.819 111.267 144.992 110.787 146.552 110.64L146.532 107.26L148.512 107.08L148.472 110.64C150.032 110.76 151.205 111.213 151.992 112C152.792 112.787 153.192 113.893 153.192 115.32ZM148.452 118.78C149.425 118.647 150.139 118.3 150.592 117.74C151.059 117.18 151.292 116.387 151.292 115.36C151.292 114.36 151.065 113.593 150.612 113.06C150.159 112.527 149.445 112.207 148.472 112.1L148.432 115.9L148.452 118.78ZM143.732 115.38C143.732 116.407 143.959 117.2 144.412 117.76C144.879 118.32 145.599 118.66 146.572 118.78L146.592 116.14L146.572 112.1C145.585 112.22 144.865 112.547 144.412 113.08C143.959 113.6 143.732 114.367 143.732 115.38ZM161.891 115.48L156.271 115.5C156.285 116.513 156.531 117.287 157.011 117.82C157.491 118.34 158.171 118.6 159.051 118.6C159.971 118.6 160.871 118.327 161.751 117.78L161.951 117.9L161.651 119.54C160.678 119.967 159.731 120.18 158.811 120.18C157.438 120.18 156.358 119.76 155.571 118.92C154.798 118.067 154.411 116.907 154.411 115.44C154.411 113.96 154.798 112.787 155.571 111.92C156.345 111.053 157.391 110.62 158.711 110.62C159.831 110.62 160.691 110.927 161.291 111.54C161.905 112.153 162.211 113.02 162.211 114.14C162.211 114.447 162.178 114.813 162.111 115.24L161.891 115.48ZM160.371 113.9C160.371 113.273 160.225 112.8 159.931 112.48C159.651 112.16 159.238 112 158.691 112C158.078 112 157.571 112.2 157.171 112.6C156.771 112.987 156.505 113.54 156.371 114.26L160.331 114.18L160.371 113.9ZM167.949 110.6C168.375 110.6 168.809 110.647 169.249 110.74C169.689 110.833 170.075 110.96 170.409 111.12L170.069 112.82L169.869 112.9C169.162 112.487 168.509 112.28 167.909 112.28C167.202 112.28 166.649 112.547 166.249 113.08C165.849 113.613 165.649 114.36 165.649 115.32C165.649 116.347 165.855 117.147 166.269 117.72C166.682 118.28 167.269 118.56 168.029 118.56C168.695 118.56 169.409 118.36 170.169 117.96L170.349 118.08L170.149 119.72C169.335 120.027 168.522 120.18 167.709 120.18C166.455 120.18 165.475 119.767 164.769 118.94C164.075 118.1 163.729 116.947 163.729 115.48C163.729 113.96 164.102 112.767 164.849 111.9C165.595 111.033 166.629 110.6 167.949 110.6ZM176.015 110.6C176.442 110.6 176.875 110.647 177.315 110.74C177.755 110.833 178.142 110.96 178.475 111.12L178.135 112.82L177.935 112.9C177.229 112.487 176.575 112.28 175.975 112.28C175.269 112.28 174.715 112.547 174.315 113.08C173.915 113.613 173.715 114.36 173.715 115.32C173.715 116.347 173.922 117.147 174.335 117.72C174.749 118.28 175.335 118.56 176.095 118.56C176.762 118.56 177.475 118.36 178.235 117.96L178.415 118.08L178.215 119.72C177.402 120.027 176.589 120.18 175.775 120.18C174.522 120.18 173.542 119.767 172.835 118.94C172.142 118.1 171.795 116.947 171.795 115.48C171.795 113.96 172.169 112.767 172.915 111.9C173.662 111.033 174.695 110.6 176.015 110.6ZM180.605 116.14L180.525 110.82L182.505 110.74L182.465 117.18H182.585L186.285 110.78H188.285L188.205 115.9L188.285 120H186.305L186.365 116.28L186.385 113.48H186.245L182.485 120H180.525L180.605 116.14ZM194.787 110.6C196.08 110.6 197.074 111.007 197.767 111.82C198.474 112.62 198.827 113.76 198.827 115.24C198.827 116.827 198.454 118.047 197.707 118.9C196.96 119.753 195.9 120.18 194.527 120.18C193.234 120.18 192.234 119.78 191.527 118.98C190.834 118.167 190.487 117.02 190.487 115.54C190.487 113.953 190.86 112.733 191.607 111.88C192.354 111.027 193.414 110.6 194.787 110.6ZM194.667 112.02C193.147 112.02 192.387 113.047 192.387 115.1C192.387 116.353 192.574 117.28 192.947 117.88C193.32 118.48 193.894 118.78 194.667 118.78C195.427 118.78 195.994 118.527 196.367 118.02C196.74 117.513 196.927 116.74 196.927 115.7C196.927 114.447 196.74 113.52 196.367 112.92C195.994 112.32 195.427 112.02 194.667 112.02ZM208.617 115.96L208.677 120H206.677L206.757 116.14L204.717 116.12L202.797 116.16L202.857 120H200.857L200.937 116.14L200.877 110.78H202.877L202.817 114.62L204.797 114.64H206.737L206.717 110.78H208.697L208.617 115.96ZM214.897 110.6C215.817 110.6 216.544 110.82 217.077 111.26C217.611 111.7 217.877 112.313 217.877 113.1C217.877 113.34 217.837 114.14 217.757 115.5C217.677 116.833 217.637 117.613 217.637 117.84C217.637 118.093 217.677 118.273 217.757 118.38C217.851 118.473 218.004 118.52 218.217 118.52C218.351 118.52 218.551 118.493 218.817 118.44L218.997 118.58L218.797 119.7C218.411 119.94 217.991 120.087 217.537 120.14C217.124 120.1 216.791 119.953 216.537 119.7C216.284 119.433 216.131 119.087 216.077 118.66H215.937C215.257 119.38 214.564 119.88 213.857 120.16C212.937 120.147 212.211 119.907 211.677 119.44C211.157 118.973 210.897 118.34 210.897 117.54C210.897 116.353 211.544 115.613 212.837 115.32L215.997 114.62L216.017 113.54C216.017 113.047 215.891 112.673 215.637 112.42C215.397 112.167 215.044 112.04 214.577 112.04C214.124 112.04 213.671 112.147 213.217 112.36C212.764 112.56 212.264 112.88 211.717 113.32L211.557 113.22L211.297 111.8C212.471 111 213.671 110.6 214.897 110.6ZM213.397 116.42C213.157 116.473 212.984 116.567 212.877 116.7C212.771 116.82 212.717 117.013 212.717 117.28C212.717 117.68 212.824 117.993 213.037 118.22C213.264 118.447 213.564 118.56 213.937 118.56C214.564 118.56 215.231 118.153 215.937 117.34L215.997 115.8L213.397 116.42ZM227.533 115.96L227.613 120H225.613L225.673 116.14L225.653 112.14H223.553L223.473 112.8C223.273 114.667 223.047 116.107 222.793 117.12C222.553 118.133 222.247 118.873 221.873 119.34C221.513 119.793 221.033 120.073 220.433 120.18L219.953 120.2L219.633 118.64C220.127 118.48 220.513 118.207 220.793 117.82C221.073 117.42 221.3 116.813 221.473 116C221.647 115.187 221.807 114.007 221.953 112.46L222.133 110.82L222.113 110.78H227.633L227.533 115.96ZM234.467 114.34C235.467 114.34 236.227 114.553 236.747 114.98C237.281 115.407 237.547 116.027 237.547 116.84C237.547 117.84 237.181 118.62 236.447 119.18C235.714 119.727 234.694 120 233.387 120H230.447L230.527 116.14L230.467 110.78H232.467L232.407 114.34H234.467ZM233.927 118.74C234.474 118.66 234.894 118.48 235.187 118.2C235.481 117.907 235.627 117.527 235.627 117.06C235.627 116.58 235.474 116.207 235.167 115.94C234.874 115.673 234.454 115.547 233.907 115.56L232.387 115.58V115.96L232.427 118.7L233.927 118.74ZM246.879 115.96L246.939 120H244.939L245.019 116.14L242.979 116.12L241.059 116.16L241.119 120H239.119L239.199 116.14L239.139 110.78H241.139L241.079 114.62L243.059 114.64H244.999L244.979 110.78H246.959L246.879 115.96ZM259.643 115.96L259.703 120H257.703L257.783 116.14L257.723 110.92L259.723 110.74L259.643 115.96ZM253.663 114.34C254.609 114.34 255.329 114.553 255.823 114.98C256.329 115.407 256.583 116.027 256.583 116.84C256.583 117.84 256.236 118.62 255.543 119.18C254.849 119.727 253.883 120 252.643 120H249.803L249.883 116.14L249.823 110.78H251.823L251.763 114.34H253.663ZM253.163 118.74C253.643 118.66 254.009 118.48 254.263 118.2C254.516 117.907 254.643 117.527 254.643 117.06C254.643 116.58 254.509 116.207 254.243 115.94C253.976 115.673 253.603 115.547 253.123 115.56L251.743 115.58V115.96L251.783 118.7L253.163 118.74ZM269.352 115.48L263.732 115.5C263.746 116.513 263.992 117.287 264.472 117.82C264.952 118.34 265.632 118.6 266.512 118.6C267.432 118.6 268.332 118.327 269.212 117.78L269.412 117.9L269.112 119.54C268.139 119.967 267.192 120.18 266.272 120.18C264.899 120.18 263.819 119.76 263.032 118.92C262.259 118.067 261.872 116.907 261.872 115.44C261.872 113.96 262.259 112.787 263.032 111.92C263.806 111.053 264.852 110.62 266.172 110.62C267.292 110.62 268.152 110.927 268.752 111.54C269.366 112.153 269.672 113.02 269.672 114.14C269.672 114.447 269.639 114.813 269.572 115.24L269.352 115.48ZM267.832 113.9C267.832 113.273 267.686 112.8 267.392 112.48C267.112 112.16 266.699 112 266.152 112C265.539 112 265.032 112.2 264.632 112.6C264.232 112.987 263.966 113.54 263.832 114.26L267.792 114.18L267.832 113.9ZM86.9233 140.14L86.8633 134.92L88.8633 134.74L88.7833 139.96L88.8433 144H86.8433L86.9233 140.14ZM91.0033 138.98C92.1233 140.527 93.3366 142.08 94.6433 143.64L94.6233 143.88C94.2766 143.973 93.9033 144.04 93.5033 144.08C93.1033 144.133 92.8633 144.167 92.7833 144.18L92.5833 144.1C91.1299 142.26 89.9499 140.613 89.0433 139.16V139.02L91.7433 135.66L92.2433 134.78H94.3833L91.0033 138.98ZM99.5234 134.6C100.817 134.6 101.81 135.007 102.503 135.82C103.21 136.62 103.563 137.76 103.563 139.24C103.563 140.827 103.19 142.047 102.443 142.9C101.697 143.753 100.637 144.18 99.2634 144.18C97.9701 144.18 96.9701 143.78 96.2634 142.98C95.5701 142.167 95.2234 141.02 95.2234 139.54C95.2234 137.953 95.5968 136.733 96.3434 135.88C97.0901 135.027 98.1501 134.6 99.5234 134.6ZM99.4034 136.02C97.8834 136.02 97.1234 137.047 97.1234 139.1C97.1234 140.353 97.3101 141.28 97.6834 141.88C98.0568 142.48 98.6301 142.78 99.4034 142.78C100.163 142.78 100.73 142.527 101.103 142.02C101.477 141.513 101.663 140.74 101.663 139.7C101.663 138.447 101.477 137.52 101.103 136.92C100.73 136.32 100.163 136.02 99.4034 136.02ZM113.354 139.96L113.414 144H111.414L111.494 140.14L109.454 140.12L107.534 140.16L107.594 144H105.594L105.674 140.14L105.614 134.78H107.614L107.554 138.62L109.534 138.64H111.474L111.454 134.78H113.434L113.354 139.96ZM119.834 134.6C120.26 134.6 120.694 134.647 121.134 134.74C121.574 134.833 121.96 134.96 122.294 135.12L121.954 136.82L121.754 136.9C121.047 136.487 120.394 136.28 119.794 136.28C119.087 136.28 118.534 136.547 118.134 137.08C117.734 137.613 117.534 138.36 117.534 139.32C117.534 140.347 117.74 141.147 118.154 141.72C118.567 142.28 119.154 142.56 119.914 142.56C120.58 142.56 121.294 142.36 122.054 141.96L122.234 142.08L122.034 143.72C121.22 144.027 120.407 144.18 119.594 144.18C118.34 144.18 117.36 143.767 116.654 142.94C115.96 142.1 115.614 140.947 115.614 139.48C115.614 137.96 115.987 136.767 116.734 135.9C117.48 135.033 118.514 134.6 119.834 134.6ZM125.34 136.02L127.34 141.88H127.48L129.48 136.2L129.82 134.78H131.58L128.4 143.54C128.08 144.447 127.727 145.167 127.34 145.7C126.953 146.247 126.473 146.68 125.9 147C125.34 147.32 124.607 147.593 123.7 147.82H123.52C123.2 147.5 122.92 147.1 122.68 146.62L122.74 146.4C123.687 146.227 124.433 145.973 124.98 145.64C125.527 145.307 126.027 144.76 126.48 144L123.12 134.82L125.04 134.72L125.34 136.02ZM139.32 139.96L139.4 144H137.4L137.46 140.14L137.44 136.14H135.34L135.26 136.8C135.06 138.667 134.834 140.107 134.58 141.12C134.34 142.133 134.034 142.873 133.66 143.34C133.3 143.793 132.82 144.073 132.22 144.18L131.74 144.2L131.42 142.64C131.914 142.48 132.3 142.207 132.58 141.82C132.86 141.42 133.087 140.813 133.26 140C133.434 139.187 133.594 138.007 133.74 136.46L133.92 134.82L133.9 134.78H139.42L139.32 139.96ZM146.254 138.34C147.254 138.34 148.014 138.553 148.534 138.98C149.068 139.407 149.334 140.027 149.334 140.84C149.334 141.84 148.968 142.62 148.234 143.18C147.501 143.727 146.481 144 145.174 144H142.234L142.314 140.14L142.254 134.78H144.254L144.194 138.34H146.254ZM145.714 142.74C146.261 142.66 146.681 142.48 146.974 142.2C147.268 141.907 147.414 141.527 147.414 141.06C147.414 140.58 147.261 140.207 146.954 139.94C146.661 139.673 146.241 139.547 145.694 139.56L144.174 139.58V139.96L144.214 142.7L145.714 142.74ZM156.379 134.92L156.259 136.24L154.499 136.2H153.579L153.519 139.96L153.579 144H151.599L151.659 140.14L151.619 136.2H150.679L148.899 136.24L148.799 136.1L148.899 134.78H156.259L156.379 134.92ZM161.02 134.6C161.94 134.6 162.667 134.82 163.2 135.26C163.734 135.7 164 136.313 164 137.1C164 137.34 163.96 138.14 163.88 139.5C163.8 140.833 163.76 141.613 163.76 141.84C163.76 142.093 163.8 142.273 163.88 142.38C163.974 142.473 164.127 142.52 164.34 142.52C164.474 142.52 164.674 142.493 164.94 142.44L165.12 142.58L164.92 143.7C164.534 143.94 164.114 144.087 163.66 144.14C163.247 144.1 162.914 143.953 162.66 143.7C162.407 143.433 162.254 143.087 162.2 142.66H162.06C161.38 143.38 160.687 143.88 159.98 144.16C159.06 144.147 158.334 143.907 157.8 143.44C157.28 142.973 157.02 142.34 157.02 141.54C157.02 140.353 157.667 139.613 158.96 139.32L162.12 138.62L162.14 137.54C162.14 137.047 162.014 136.673 161.76 136.42C161.52 136.167 161.167 136.04 160.7 136.04C160.247 136.04 159.794 136.147 159.34 136.36C158.887 136.56 158.387 136.88 157.84 137.32L157.68 137.22L157.42 135.8C158.594 135 159.794 134.6 161.02 134.6ZM159.52 140.42C159.28 140.473 159.107 140.567 159 140.7C158.894 140.82 158.84 141.013 158.84 141.28C158.84 141.68 158.947 141.993 159.16 142.22C159.387 142.447 159.687 142.56 160.06 142.56C160.687 142.56 161.354 142.153 162.06 141.34L162.12 139.8L159.52 140.42ZM175.781 142.5V146.2L174.421 146.32L174.181 144H166.941L167.021 140.14L166.961 134.78H168.961L168.881 139.96L168.921 142.5H172.481L172.521 140.14L172.461 134.78H174.441L174.361 139.96L174.421 142.5H175.781ZM177.842 140.14L177.762 134.82L179.742 134.74L179.702 141.18H179.822L183.522 134.78H185.522L185.442 139.9L185.522 144H183.542L183.602 140.28L183.622 137.48H183.482L179.722 144H177.762L177.842 140.14ZM188.447 140.14L188.367 134.82L190.347 134.74L190.307 141.18H190.427L194.127 134.78H196.127L196.047 139.9L196.127 144H194.147L194.207 140.28L194.227 137.48H194.087L190.327 144H188.367L188.447 140.14ZM202.412 140.14L202.332 134.82L204.312 134.74L204.272 141.18H204.392L208.092 134.78H210.092L210.012 139.9L210.092 144H208.112L208.172 140.28L208.192 137.48H208.052L204.292 144H202.332L202.412 140.14ZM223.797 140.56L223.877 144H221.857L221.957 140.76L221.897 136.22H218.297L218.237 140.56L218.297 144H216.297L216.377 140.76L216.317 134.78H223.877L223.797 140.56ZM230.383 134.6C231.676 134.6 232.669 135.007 233.363 135.82C234.069 136.62 234.423 137.76 234.423 139.24C234.423 140.827 234.049 142.047 233.303 142.9C232.556 143.753 231.496 144.18 230.123 144.18C228.829 144.18 227.829 143.78 227.123 142.98C226.429 142.167 226.083 141.02 226.083 139.54C226.083 137.953 226.456 136.733 227.203 135.88C227.949 135.027 229.009 134.6 230.383 134.6ZM230.263 136.02C228.743 136.02 227.983 137.047 227.983 139.1C227.983 140.353 228.169 141.28 228.543 141.88C228.916 142.48 229.489 142.78 230.263 142.78C231.023 142.78 231.589 142.527 231.963 142.02C232.336 141.513 232.523 140.74 232.523 139.7C232.523 138.447 232.336 137.52 231.963 136.92C231.589 136.32 231.023 136.02 230.263 136.02ZM236.993 134.78H239.013L239.453 136.16L241.073 140.7H241.213L242.973 136.16L243.433 134.78H245.413L246.273 144H244.653L244.493 141.12L244.153 137.44H244.013L241.753 143.02H240.353L238.273 137.44H238.153L237.773 140.86L237.533 144H235.993L236.993 134.78ZM252.395 134.6C253.688 134.6 254.681 135.007 255.375 135.82C256.081 136.62 256.435 137.76 256.435 139.24C256.435 140.827 256.061 142.047 255.315 142.9C254.568 143.753 253.508 144.18 252.135 144.18C250.841 144.18 249.841 143.78 249.135 142.98C248.441 142.167 248.095 141.02 248.095 139.54C248.095 137.953 248.468 136.733 249.215 135.88C249.961 135.027 251.021 134.6 252.395 134.6ZM252.275 136.02C250.755 136.02 249.995 137.047 249.995 139.1C249.995 140.353 250.181 141.28 250.555 141.88C250.928 142.48 251.501 142.78 252.275 142.78C253.035 142.78 253.601 142.527 253.975 142.02C254.348 141.513 254.535 140.74 254.535 139.7C254.535 138.447 254.348 137.52 253.975 136.92C253.601 136.32 253.035 136.02 252.275 136.02ZM271.465 142.5V146.2L270.105 146.32L269.865 144H258.485L258.545 140.14L258.485 134.78H260.345L260.245 139.96L260.305 142.52H263.285L263.325 140.14L263.265 134.78H265.125L265.045 139.96L265.085 142.52H268.065L268.105 140.14L268.045 134.78H269.885L269.825 139.96L269.845 142.5H271.465ZM277.329 138.34C278.329 138.34 279.089 138.553 279.609 138.98C280.142 139.407 280.409 140.027 280.409 140.84C280.409 141.84 280.042 142.62 279.309 143.18C278.575 143.727 277.555 144 276.249 144H273.309L273.389 140.14L273.329 134.78H275.329L275.269 138.34H277.329ZM276.789 142.74C277.335 142.66 277.755 142.48 278.049 142.2C278.342 141.907 278.489 141.527 278.489 141.06C278.489 140.58 278.335 140.207 278.029 139.94C277.735 139.673 277.315 139.547 276.769 139.56L275.249 139.58V139.96L275.289 142.7L276.789 142.74ZM103.149 163.22C104.456 163.513 105.109 164.233 105.109 165.38C105.109 166.3 104.742 166.98 104.009 167.42C103.289 167.847 102.216 168.06 100.789 168.06C99.8691 168.06 98.8958 168.04 97.8691 168L97.9491 164.14L97.8891 158.78L101.469 158.76C102.509 158.76 103.309 158.96 103.869 159.36C104.429 159.747 104.709 160.307 104.709 161.04C104.709 161.52 104.576 161.947 104.309 162.32C104.042 162.693 103.656 162.993 103.149 163.22ZM102.849 161.28C102.849 160.853 102.682 160.533 102.349 160.32C102.016 160.107 101.502 160 100.809 160C100.369 160 100.029 160.007 99.7891 160.02L99.7291 162.72L101.449 162.78C101.902 162.687 102.249 162.513 102.489 162.26C102.729 162.007 102.849 161.68 102.849 161.28ZM101.009 166.86C101.729 166.86 102.282 166.727 102.669 166.46C103.056 166.193 103.249 165.807 103.249 165.3C103.249 164.54 102.729 164.093 101.689 163.96L99.7091 163.98L99.7491 166.8C100.176 166.84 100.596 166.86 101.009 166.86ZM115.805 163.22C117.112 163.513 117.765 164.233 117.765 165.38C117.765 166.3 117.399 166.98 116.665 167.42C115.945 167.847 114.872 168.06 113.445 168.06C112.525 168.06 111.552 168.04 110.525 168L110.605 164.14L110.545 158.78L114.125 158.76C115.165 158.76 115.965 158.96 116.525 159.36C117.085 159.747 117.365 160.307 117.365 161.04C117.365 161.52 117.232 161.947 116.965 162.32C116.699 162.693 116.312 162.993 115.805 163.22ZM115.505 161.28C115.505 160.853 115.339 160.533 115.005 160.32C114.672 160.107 114.159 160 113.465 160C113.025 160 112.685 160.007 112.445 160.02L112.385 162.72L114.105 162.78C114.559 162.687 114.905 162.513 115.145 162.26C115.385 162.007 115.505 161.68 115.505 161.28ZM113.665 166.86C114.385 166.86 114.939 166.727 115.325 166.46C115.712 166.193 115.905 165.807 115.905 165.3C115.905 164.54 115.385 164.093 114.345 163.96L112.365 163.98L112.405 166.8C112.832 166.84 113.252 166.86 113.665 166.86ZM129.662 163.96L129.722 168H127.722L127.802 164.14L127.742 158.92L129.742 158.74L129.662 163.96ZM123.682 162.34C124.629 162.34 125.349 162.553 125.842 162.98C126.349 163.407 126.602 164.027 126.602 164.84C126.602 165.84 126.256 166.62 125.562 167.18C124.869 167.727 123.902 168 122.662 168H119.822L119.902 164.14L119.842 158.78H121.842L121.782 162.34H123.682ZM123.182 166.74C123.662 166.66 124.029 166.48 124.282 166.2C124.536 165.907 124.662 165.527 124.662 165.06C124.662 164.58 124.529 164.207 124.262 163.94C123.996 163.673 123.622 163.547 123.142 163.56L121.762 163.58V163.96L121.802 166.7L123.182 166.74ZM136.737 159C137.95 159 138.863 159.367 139.477 160.1C140.103 160.833 140.417 161.913 140.417 163.34C140.417 164.913 140.05 166.113 139.317 166.94C138.597 167.767 137.543 168.18 136.157 168.18C135.197 168.18 134.423 167.967 133.837 167.54C133.25 167.113 132.817 166.447 132.537 165.54C132.27 164.62 132.137 163.42 132.137 161.94C132.137 160.633 132.243 159.573 132.457 158.76C132.683 157.933 133.037 157.267 133.517 156.76C134.01 156.253 134.683 155.853 135.537 155.56L137.397 154.88C137.823 154.733 138.197 154.58 138.517 154.42C138.837 154.26 139.177 154.053 139.537 153.8L139.737 153.9L139.857 155.54C139.297 155.9 138.59 156.207 137.737 156.46L135.897 157.02C135.243 157.22 134.77 157.587 134.477 158.12C134.183 158.653 134.037 159.393 134.037 160.34V160.68L134.157 160.7C134.89 159.847 135.75 159.28 136.737 159ZM136.297 166.78C137.043 166.78 137.597 166.533 137.957 166.04C138.33 165.533 138.517 164.767 138.517 163.74C138.517 162.727 138.343 161.967 137.997 161.46C137.65 160.953 137.143 160.7 136.477 160.7C136.037 160.7 135.623 160.813 135.237 161.04C134.85 161.267 134.45 161.633 134.037 162.14C134.05 163.287 134.13 164.2 134.277 164.88C134.423 165.547 134.657 166.033 134.977 166.34C135.31 166.633 135.75 166.78 136.297 166.78ZM146.096 158.6C147.389 158.6 148.382 159.007 149.076 159.82C149.782 160.62 150.136 161.76 150.136 163.24C150.136 164.827 149.762 166.047 149.016 166.9C148.269 167.753 147.209 168.18 145.836 168.18C144.542 168.18 143.542 167.78 142.836 166.98C142.142 166.167 141.796 165.02 141.796 163.54C141.796 161.953 142.169 160.733 142.916 159.88C143.662 159.027 144.722 158.6 146.096 158.6ZM145.976 160.02C144.456 160.02 143.696 161.047 143.696 163.1C143.696 164.353 143.882 165.28 144.256 165.88C144.629 166.48 145.202 166.78 145.976 166.78C146.736 166.78 147.302 166.527 147.676 166.02C148.049 165.513 148.236 164.74 148.236 163.7C148.236 162.447 148.049 161.52 147.676 160.92C147.302 160.32 146.736 160.02 145.976 160.02ZM156.782 158.68C157.929 158.68 158.809 159.067 159.422 159.84C160.049 160.6 160.362 161.693 160.362 163.12C160.362 164.733 159.969 165.98 159.182 166.86C158.396 167.74 157.276 168.18 155.822 168.18C155.356 168.18 154.836 168.127 154.262 168.02L154.322 171.7H152.302L152.442 164.14L152.302 158.92L154.262 158.74L154.242 160.06H154.382C154.809 159.687 155.202 159.4 155.562 159.2C155.922 159 156.329 158.827 156.782 158.68ZM155.982 166.78C156.782 166.78 157.396 166.493 157.822 165.92C158.249 165.347 158.462 164.527 158.462 163.46C158.462 162.447 158.289 161.673 157.942 161.14C157.596 160.593 157.096 160.32 156.442 160.32C156.082 160.32 155.722 160.42 155.362 160.62C155.016 160.807 154.636 161.107 154.222 161.52L154.202 163.96L154.242 166.34C154.869 166.633 155.449 166.78 155.982 166.78ZM169.196 163.48L163.576 163.5C163.59 164.513 163.836 165.287 164.316 165.82C164.796 166.34 165.476 166.6 166.356 166.6C167.276 166.6 168.176 166.327 169.056 165.78L169.256 165.9L168.956 167.54C167.983 167.967 167.036 168.18 166.116 168.18C164.743 168.18 163.663 167.76 162.876 166.92C162.103 166.067 161.716 164.907 161.716 163.44C161.716 161.96 162.103 160.787 162.876 159.92C163.65 159.053 164.696 158.62 166.016 158.62C167.136 158.62 167.996 158.927 168.596 159.54C169.21 160.153 169.516 161.02 169.516 162.14C169.516 162.447 169.483 162.813 169.416 163.24L169.196 163.48ZM167.676 161.9C167.676 161.273 167.53 160.8 167.236 160.48C166.956 160.16 166.543 160 165.996 160C165.383 160 164.876 160.2 164.476 160.6C164.076 160.987 163.81 161.54 163.676 162.26L167.636 162.18L167.676 161.9ZM180.337 163.22C181.643 163.513 182.297 164.233 182.297 165.38C182.297 166.3 181.93 166.98 181.197 167.42C180.477 167.847 179.403 168.06 177.977 168.06C177.057 168.06 176.083 168.04 175.057 168L175.137 164.14L175.077 158.78L178.657 158.76C179.697 158.76 180.497 158.96 181.057 159.36C181.617 159.747 181.897 160.307 181.897 161.04C181.897 161.52 181.763 161.947 181.497 162.32C181.23 162.693 180.843 162.993 180.337 163.22ZM180.037 161.28C180.037 160.853 179.87 160.533 179.537 160.32C179.203 160.107 178.69 160 177.997 160C177.557 160 177.217 160.007 176.977 160.02L176.917 162.72L178.637 162.78C179.09 162.687 179.437 162.513 179.677 162.26C179.917 162.007 180.037 161.68 180.037 161.28ZM178.197 166.86C178.917 166.86 179.47 166.727 179.857 166.46C180.243 166.193 180.437 165.807 180.437 165.3C180.437 164.54 179.917 164.093 178.877 163.96L176.897 163.98L176.937 166.8C177.363 166.84 177.783 166.86 178.197 166.86ZM191.13 163.48L185.51 163.5C185.523 164.513 185.77 165.287 186.25 165.82C186.73 166.34 187.41 166.6 188.29 166.6C189.21 166.6 190.11 166.327 190.99 165.78L191.19 165.9L190.89 167.54C189.916 167.967 188.97 168.18 188.05 168.18C186.676 168.18 185.596 167.76 184.81 166.92C184.036 166.067 183.65 164.907 183.65 163.44C183.65 161.96 184.036 160.787 184.81 159.92C185.583 159.053 186.63 158.62 187.95 158.62C189.07 158.62 189.93 158.927 190.53 159.54C191.143 160.153 191.45 161.02 191.45 162.14C191.45 162.447 191.416 162.813 191.35 163.24L191.13 163.48ZM189.61 161.9C189.61 161.273 189.463 160.8 189.17 160.48C188.89 160.16 188.476 160 187.93 160C187.316 160 186.81 160.2 186.41 160.6C186.01 160.987 185.743 161.54 185.61 162.26L189.57 162.18L189.61 161.9ZM200.287 163.96L200.367 168H198.367L198.427 164.14L198.407 160.14H196.307L196.227 160.8C196.027 162.667 195.8 164.107 195.547 165.12C195.307 166.133 195 166.873 194.627 167.34C194.267 167.793 193.787 168.073 193.187 168.18L192.707 168.2L192.387 166.64C192.88 166.48 193.267 166.207 193.547 165.82C193.827 165.42 194.054 164.813 194.227 164C194.4 163.187 194.56 162.007 194.707 160.46L194.887 158.82L194.867 158.78H200.387L200.287 163.96ZM206.857 158.6C208.151 158.6 209.144 159.007 209.837 159.82C210.544 160.62 210.897 161.76 210.897 163.24C210.897 164.827 210.524 166.047 209.777 166.9C209.031 167.753 207.971 168.18 206.597 168.18C205.304 168.18 204.304 167.78 203.597 166.98C202.904 166.167 202.557 165.02 202.557 163.54C202.557 161.953 202.931 160.733 203.677 159.88C204.424 159.027 205.484 158.6 206.857 158.6ZM206.737 160.02C205.217 160.02 204.457 161.047 204.457 163.1C204.457 164.353 204.644 165.28 205.017 165.88C205.391 166.48 205.964 166.78 206.737 166.78C207.497 166.78 208.064 166.527 208.437 166.02C208.811 165.513 208.997 164.74 208.997 163.7C208.997 162.447 208.811 161.52 208.437 160.92C208.064 160.32 207.497 160.02 206.737 160.02ZM216.484 158.6C216.911 158.6 217.344 158.647 217.784 158.74C218.224 158.833 218.611 158.96 218.944 159.12L218.604 160.82L218.404 160.9C217.697 160.487 217.044 160.28 216.444 160.28C215.737 160.28 215.184 160.547 214.784 161.08C214.384 161.613 214.184 162.36 214.184 163.32C214.184 164.347 214.391 165.147 214.804 165.72C215.217 166.28 215.804 166.56 216.564 166.56C217.231 166.56 217.944 166.36 218.704 165.96L218.884 166.08L218.684 167.72C217.871 168.027 217.057 168.18 216.244 168.18C214.991 168.18 214.011 167.767 213.304 166.94C212.611 166.1 212.264 164.947 212.264 163.48C212.264 161.96 212.637 160.767 213.384 159.9C214.131 159.033 215.164 158.6 216.484 158.6ZM221.074 164.14L220.994 158.82L222.974 158.74L222.934 165.18H223.054L226.754 158.78H228.754L228.674 163.9L228.754 168H226.774L226.834 164.28L226.854 161.48H226.714L222.954 168H220.994L221.074 164.14ZM239.1 164.56L239.18 168H237.16L237.26 164.76L237.2 160.22H233.6L233.54 164.56L233.6 168H231.6L231.68 164.76L231.62 158.78H239.18L239.1 164.56ZM248.806 163.48L243.186 163.5C243.199 164.513 243.446 165.287 243.926 165.82C244.406 166.34 245.086 166.6 245.966 166.6C246.886 166.6 247.786 166.327 248.666 165.78L248.866 165.9L248.566 167.54C247.592 167.967 246.646 168.18 245.726 168.18C244.352 168.18 243.272 167.76 242.486 166.92C241.712 166.067 241.326 164.907 241.326 163.44C241.326 161.96 241.712 160.787 242.486 159.92C243.259 159.053 244.306 158.62 245.626 158.62C246.746 158.62 247.606 158.927 248.206 159.54C248.819 160.153 249.126 161.02 249.126 162.14C249.126 162.447 249.092 162.813 249.026 163.24L248.806 163.48ZM247.286 161.9C247.286 161.273 247.139 160.8 246.846 160.48C246.566 160.16 246.152 160 245.606 160C244.992 160 244.486 160.2 244.086 160.6C243.686 160.987 243.419 161.54 243.286 162.26L247.246 162.18L247.286 161.9ZM259.683 166.54V170.2L258.343 170.32L258.103 168H251.723L251.483 170.2L250.143 170.32V166.54H250.883C251.283 166.287 251.596 165.947 251.823 165.52C252.05 165.093 252.23 164.5 252.363 163.74C252.51 162.967 252.656 161.873 252.803 160.46L252.983 158.78H258.443L258.363 163.96L258.403 166.54H259.683ZM256.563 164.14L256.503 160.12H254.423L254.343 160.78C254.183 162.473 253.976 163.753 253.723 164.62C253.483 165.473 253.136 166.113 252.683 166.54H256.523L256.563 164.14ZM265.054 158.6C265.974 158.6 266.7 158.82 267.234 159.26C267.767 159.7 268.034 160.313 268.034 161.1C268.034 161.34 267.994 162.14 267.914 163.5C267.834 164.833 267.794 165.613 267.794 165.84C267.794 166.093 267.834 166.273 267.914 166.38C268.007 166.473 268.16 166.52 268.374 166.52C268.507 166.52 268.707 166.493 268.974 166.44L269.154 166.58L268.954 167.7C268.567 167.94 268.147 168.087 267.694 168.14C267.28 168.1 266.947 167.953 266.694 167.7C266.44 167.433 266.287 167.087 266.234 166.66H266.094C265.414 167.38 264.72 167.88 264.014 168.16C263.094 168.147 262.367 167.907 261.834 167.44C261.314 166.973 261.054 166.34 261.054 165.54C261.054 164.353 261.7 163.613 262.994 163.32L266.154 162.62L266.174 161.54C266.174 161.047 266.047 160.673 265.794 160.42C265.554 160.167 265.2 160.04 264.734 160.04C264.28 160.04 263.827 160.147 263.374 160.36C262.92 160.56 262.42 160.88 261.874 161.32L261.714 161.22L261.454 159.8C262.627 159 263.827 158.6 265.054 158.6ZM263.554 164.42C263.314 164.473 263.14 164.567 263.034 164.7C262.927 164.82 262.874 165.013 262.874 165.28C262.874 165.68 262.98 165.993 263.194 166.22C263.42 166.447 263.72 166.56 264.094 166.56C264.72 166.56 265.387 166.153 266.094 165.34L266.154 163.8L263.554 164.42Z" fill="white"/>
</svg>
