<svg width="372" height="245" viewBox="0 0 372 245" fill="none" xmlns="http://www.w3.org/2000/svg">
<rect opacity="0.85" width="372" height="245" rx="25" fill="#FD6816"/>
<path opacity="0.95" d="M82.2971 112.46C83.5904 112.46 84.5704 112.753 85.2371 113.34C85.9171 113.913 86.2571 114.747 86.2571 115.84C86.2571 117.173 85.7904 118.2 84.8571 118.92C83.9238 119.64 82.6038 120 80.8971 120H77.4971L77.5971 116.16L77.4971 107.16H85.6571L85.7771 107.34L85.6371 108.86L82.4771 108.8H79.5571L79.5171 112.46H82.2971ZM81.6171 118.56C82.4304 118.467 83.0504 118.213 83.4771 117.8C83.9038 117.373 84.1171 116.807 84.1171 116.1C84.1171 115.393 83.9038 114.853 83.4771 114.48C83.0638 114.107 82.4571 113.92 81.6571 113.92L79.4971 113.94L79.4771 115.98L79.5171 118.48L81.6171 118.56ZM92.1973 110.6C93.4906 110.6 94.4839 111.007 95.1773 111.82C95.8839 112.62 96.2373 113.76 96.2373 115.24C96.2373 116.827 95.8639 118.047 95.1173 118.9C94.3706 119.753 93.3106 120.18 91.9373 120.18C90.6439 120.18 89.6439 119.78 88.9373 118.98C88.2439 118.167 87.8973 117.02 87.8973 115.54C87.8973 113.953 88.2706 112.733 89.0173 111.88C89.7639 111.027 90.8239 110.6 92.1973 110.6ZM92.0773 112.02C90.5573 112.02 89.7973 113.047 89.7973 115.1C89.7973 116.353 89.9839 117.28 90.3573 117.88C90.7306 118.48 91.3039 118.78 92.0773 118.78C92.8373 118.78 93.4039 118.527 93.7773 118.02C94.1506 117.513 94.3373 116.74 94.3373 115.7C94.3373 114.447 94.1506 113.52 93.7773 112.92C93.4039 112.32 92.8373 112.02 92.0773 112.02ZM104.729 115.96L104.809 120H102.809L102.869 116.14L102.849 112.14H100.749L100.669 112.8C100.469 114.667 100.242 116.107 99.9885 117.12C99.7485 118.133 99.4418 118.873 99.0685 119.34C98.7085 119.793 98.2285 120.073 97.6285 120.18L97.1485 120.2L96.8285 118.64C97.3218 118.48 97.7085 118.207 97.9885 117.82C98.2685 117.42 98.4952 116.813 98.6685 116C98.8418 115.187 99.0018 114.007 99.1485 112.46L99.3285 110.82L99.3085 110.78H104.829L104.729 115.96ZM111.663 114.34C112.663 114.34 113.423 114.553 113.943 114.98C114.476 115.407 114.743 116.027 114.743 116.84C114.743 117.84 114.376 118.62 113.643 119.18C112.909 119.727 111.889 120 110.583 120H107.643L107.723 116.14L107.663 110.78H109.663L109.603 114.34H111.663ZM111.123 118.74C111.669 118.66 112.089 118.48 112.383 118.2C112.676 117.907 112.823 117.527 112.823 117.06C112.823 116.58 112.669 116.207 112.363 115.94C112.069 115.673 111.649 115.547 111.103 115.56L109.583 115.58V115.96L109.623 118.7L111.123 118.74ZM127.674 115.96L127.714 120H116.334L116.394 116.14L116.334 110.78H118.194L118.094 115.96L118.154 118.52H121.134L121.174 116.14L121.114 110.78H122.974L122.894 115.96L122.934 118.52H125.914L125.954 116.14L125.894 110.78H127.734L127.674 115.96ZM134.229 110.6C135.522 110.6 136.515 111.007 137.209 111.82C137.915 112.62 138.269 113.76 138.269 115.24C138.269 116.827 137.895 118.047 137.149 118.9C136.402 119.753 135.342 120.18 133.969 120.18C132.675 120.18 131.675 119.78 130.969 118.98C130.275 118.167 129.929 117.02 129.929 115.54C129.929 113.953 130.302 112.733 131.049 111.88C131.795 111.027 132.855 110.6 134.229 110.6ZM134.109 112.02C132.589 112.02 131.829 113.047 131.829 115.1C131.829 116.353 132.015 117.28 132.389 117.88C132.762 118.48 133.335 118.78 134.109 118.78C134.869 118.78 135.435 118.527 135.809 118.02C136.182 117.513 136.369 116.74 136.369 115.7C136.369 114.447 136.182 113.52 135.809 112.92C135.435 112.32 134.869 112.02 134.109 112.02ZM140.379 116.14L140.299 110.82L142.279 110.74L142.239 117.18H142.359L146.059 110.78H148.059L147.979 115.9L148.059 120H146.079L146.139 116.28L146.159 113.48H146.019L142.259 120H140.299L140.379 116.14ZM147.219 107.54C146.979 108.113 146.585 108.56 146.039 108.88C145.505 109.2 144.879 109.36 144.159 109.36C143.439 109.36 142.819 109.207 142.299 108.9C141.792 108.58 141.405 108.127 141.139 107.54L142.179 106.82H142.419C142.552 107.273 142.759 107.607 143.039 107.82C143.332 108.02 143.719 108.12 144.199 108.12C144.679 108.12 145.052 108.027 145.319 107.84C145.585 107.64 145.799 107.3 145.959 106.82H146.179L147.219 107.54ZM159.544 115.22C160.85 115.513 161.504 116.233 161.504 117.38C161.504 118.3 161.137 118.98 160.404 119.42C159.684 119.847 158.61 120.06 157.184 120.06C156.264 120.06 155.29 120.04 154.264 120L154.344 116.14L154.284 110.78L157.864 110.76C158.904 110.76 159.704 110.96 160.264 111.36C160.824 111.747 161.104 112.307 161.104 113.04C161.104 113.52 160.97 113.947 160.704 114.32C160.437 114.693 160.05 114.993 159.544 115.22ZM159.244 113.28C159.244 112.853 159.077 112.533 158.744 112.32C158.41 112.107 157.897 112 157.204 112C156.764 112 156.424 112.007 156.184 112.02L156.124 114.72L157.844 114.78C158.297 114.687 158.644 114.513 158.884 114.26C159.124 114.007 159.244 113.68 159.244 113.28ZM157.404 118.86C158.124 118.86 158.677 118.727 159.064 118.46C159.45 118.193 159.644 117.807 159.644 117.3C159.644 116.54 159.124 116.093 158.084 115.96L156.104 115.98L156.144 118.8C156.57 118.84 156.99 118.86 157.404 118.86ZM173.401 115.96L173.461 120H171.461L171.541 116.14L171.481 110.92L173.481 110.74L173.401 115.96ZM167.421 114.34C168.367 114.34 169.087 114.553 169.581 114.98C170.087 115.407 170.341 116.027 170.341 116.84C170.341 117.84 169.994 118.62 169.301 119.18C168.607 119.727 167.641 120 166.401 120H163.561L163.641 116.14L163.581 110.78H165.581L165.521 114.34H167.421ZM166.921 118.74C167.401 118.66 167.767 118.48 168.021 118.2C168.274 117.907 168.401 117.527 168.401 117.06C168.401 116.58 168.267 116.207 168.001 115.94C167.734 115.673 167.361 115.547 166.881 115.56L165.501 115.58V115.96L165.541 118.7L166.921 118.74ZM180.475 111C181.688 111 182.602 111.367 183.215 112.1C183.842 112.833 184.155 113.913 184.155 115.34C184.155 116.913 183.788 118.113 183.055 118.94C182.335 119.767 181.282 120.18 179.895 120.18C178.935 120.18 178.162 119.967 177.575 119.54C176.988 119.113 176.555 118.447 176.275 117.54C176.008 116.62 175.875 115.42 175.875 113.94C175.875 112.633 175.982 111.573 176.195 110.76C176.422 109.933 176.775 109.267 177.255 108.76C177.748 108.253 178.422 107.853 179.275 107.56L181.135 106.88C181.562 106.733 181.935 106.58 182.255 106.42C182.575 106.26 182.915 106.053 183.275 105.8L183.475 105.9L183.595 107.54C183.035 107.9 182.328 108.207 181.475 108.46L179.635 109.02C178.982 109.22 178.508 109.587 178.215 110.12C177.922 110.653 177.775 111.393 177.775 112.34V112.68L177.895 112.7C178.628 111.847 179.488 111.28 180.475 111ZM180.035 118.78C180.782 118.78 181.335 118.533 181.695 118.04C182.068 117.533 182.255 116.767 182.255 115.74C182.255 114.727 182.082 113.967 181.735 113.46C181.388 112.953 180.882 112.7 180.215 112.7C179.775 112.7 179.362 112.813 178.975 113.04C178.588 113.267 178.188 113.633 177.775 114.14C177.788 115.287 177.868 116.2 178.015 116.88C178.162 117.547 178.395 118.033 178.715 118.34C179.048 118.633 179.488 118.78 180.035 118.78ZM189.834 110.6C191.127 110.6 192.121 111.007 192.814 111.82C193.521 112.62 193.874 113.76 193.874 115.24C193.874 116.827 193.501 118.047 192.754 118.9C192.007 119.753 190.947 120.18 189.574 120.18C188.281 120.18 187.281 119.78 186.574 118.98C185.881 118.167 185.534 117.02 185.534 115.54C185.534 113.953 185.907 112.733 186.654 111.88C187.401 111.027 188.461 110.6 189.834 110.6ZM189.714 112.02C188.194 112.02 187.434 113.047 187.434 115.1C187.434 116.353 187.621 117.28 187.994 117.88C188.367 118.48 188.941 118.78 189.714 118.78C190.474 118.78 191.041 118.527 191.414 118.02C191.787 117.513 191.974 116.74 191.974 115.7C191.974 114.447 191.787 113.52 191.414 112.92C191.041 112.32 190.474 112.02 189.714 112.02ZM200.521 110.68C201.667 110.68 202.547 111.067 203.161 111.84C203.787 112.6 204.101 113.693 204.101 115.12C204.101 116.733 203.707 117.98 202.921 118.86C202.134 119.74 201.014 120.18 199.561 120.18C199.094 120.18 198.574 120.127 198.001 120.02L198.061 123.7H196.041L196.181 116.14L196.041 110.92L198.001 110.74L197.981 112.06H198.121C198.547 111.687 198.941 111.4 199.301 111.2C199.661 111 200.067 110.827 200.521 110.68ZM199.721 118.78C200.521 118.78 201.134 118.493 201.561 117.92C201.987 117.347 202.201 116.527 202.201 115.46C202.201 114.447 202.027 113.673 201.681 113.14C201.334 112.593 200.834 112.32 200.181 112.32C199.821 112.32 199.461 112.42 199.101 112.62C198.754 112.807 198.374 113.107 197.961 113.52L197.941 115.96L197.981 118.34C198.607 118.633 199.187 118.78 199.721 118.78ZM209.578 116.14L209.518 110.92L211.518 110.74L211.438 115.96L211.498 120H209.498L209.578 116.14ZM213.658 114.98C214.778 116.527 215.991 118.08 217.298 119.64L217.278 119.88C216.931 119.973 216.558 120.04 216.158 120.08C215.758 120.133 215.518 120.167 215.438 120.18L215.238 120.1C213.784 118.26 212.604 116.613 211.698 115.16V115.02L214.398 111.66L214.898 110.78H217.038L213.658 114.98ZM223.45 110.68C224.597 110.68 225.477 111.067 226.09 111.84C226.717 112.6 227.03 113.693 227.03 115.12C227.03 116.733 226.637 117.98 225.85 118.86C225.064 119.74 223.944 120.18 222.49 120.18C222.024 120.18 221.504 120.127 220.93 120.02L220.99 123.7H218.97L219.11 116.14L218.97 110.92L220.93 110.74L220.91 112.06H221.05C221.477 111.687 221.87 111.4 222.23 111.2C222.59 111 222.997 110.827 223.45 110.68ZM222.65 118.78C223.45 118.78 224.064 118.493 224.49 117.92C224.917 117.347 225.13 116.527 225.13 115.46C225.13 114.447 224.957 113.673 224.61 113.14C224.264 112.593 223.764 112.32 223.11 112.32C222.75 112.32 222.39 112.42 222.03 112.62C221.684 112.807 221.304 113.107 220.89 113.52L220.87 115.96L220.91 118.34C221.537 118.633 222.117 118.78 222.65 118.78ZM232.744 110.6C234.037 110.6 235.031 111.007 235.724 111.82C236.431 112.62 236.784 113.76 236.784 115.24C236.784 116.827 236.411 118.047 235.664 118.9C234.917 119.753 233.857 120.18 232.484 120.18C231.191 120.18 230.191 119.78 229.484 118.98C228.791 118.167 228.444 117.02 228.444 115.54C228.444 113.953 228.817 112.733 229.564 111.88C230.311 111.027 231.371 110.6 232.744 110.6ZM232.624 112.02C231.104 112.02 230.344 113.047 230.344 115.1C230.344 116.353 230.531 117.28 230.904 117.88C231.277 118.48 231.851 118.78 232.624 118.78C233.384 118.78 233.951 118.527 234.324 118.02C234.697 117.513 234.884 116.74 234.884 115.7C234.884 114.447 234.697 113.52 234.324 112.92C233.951 112.32 233.384 112.02 232.624 112.02ZM242.371 110.6C242.797 110.6 243.231 110.647 243.671 110.74C244.111 110.833 244.497 110.96 244.831 111.12L244.491 112.82L244.291 112.9C243.584 112.487 242.931 112.28 242.331 112.28C241.624 112.28 241.071 112.547 240.671 113.08C240.271 113.613 240.071 114.36 240.071 115.32C240.071 116.347 240.277 117.147 240.691 117.72C241.104 118.28 241.691 118.56 242.451 118.56C243.117 118.56 243.831 118.36 244.591 117.96L244.771 118.08L244.571 119.72C243.757 120.027 242.944 120.18 242.131 120.18C240.877 120.18 239.897 119.767 239.191 118.94C238.497 118.1 238.151 116.947 238.151 115.48C238.151 113.96 238.524 112.767 239.271 111.9C240.017 111.033 241.051 110.6 242.371 110.6ZM250.437 110.6C250.864 110.6 251.297 110.647 251.737 110.74C252.177 110.833 252.564 110.96 252.897 111.12L252.557 112.82L252.357 112.9C251.65 112.487 250.997 112.28 250.397 112.28C249.69 112.28 249.137 112.547 248.737 113.08C248.337 113.613 248.137 114.36 248.137 115.32C248.137 116.347 248.344 117.147 248.757 117.72C249.17 118.28 249.757 118.56 250.517 118.56C251.184 118.56 251.897 118.36 252.657 117.96L252.837 118.08L252.637 119.72C251.824 120.027 251.01 120.18 250.197 120.18C248.944 120.18 247.964 119.767 247.257 118.94C246.564 118.1 246.217 116.947 246.217 115.48C246.217 113.96 246.59 112.767 247.337 111.9C248.084 111.033 249.117 110.6 250.437 110.6ZM258.604 110.6C259.897 110.6 260.89 111.007 261.584 111.82C262.29 112.62 262.644 113.76 262.644 115.24C262.644 116.827 262.27 118.047 261.524 118.9C260.777 119.753 259.717 120.18 258.344 120.18C257.05 120.18 256.05 119.78 255.344 118.98C254.65 118.167 254.304 117.02 254.304 115.54C254.304 113.953 254.677 112.733 255.424 111.88C256.17 111.027 257.23 110.6 258.604 110.6ZM258.484 112.02C256.964 112.02 256.204 113.047 256.204 115.1C256.204 116.353 256.39 117.28 256.764 117.88C257.137 118.48 257.71 118.78 258.484 118.78C259.244 118.78 259.81 118.527 260.184 118.02C260.557 117.513 260.744 116.74 260.744 115.7C260.744 114.447 260.557 113.52 260.184 112.92C259.81 112.32 259.244 112.02 258.484 112.02ZM269.954 115.22C271.26 115.513 271.914 116.233 271.914 117.38C271.914 118.3 271.547 118.98 270.814 119.42C270.094 119.847 269.02 120.06 267.594 120.06C266.674 120.06 265.7 120.04 264.674 120L264.754 116.14L264.694 110.78L268.274 110.76C269.314 110.76 270.114 110.96 270.674 111.36C271.234 111.747 271.514 112.307 271.514 113.04C271.514 113.52 271.38 113.947 271.114 114.32C270.847 114.693 270.46 114.993 269.954 115.22ZM269.654 113.28C269.654 112.853 269.487 112.533 269.154 112.32C268.82 112.107 268.307 112 267.614 112C267.174 112 266.834 112.007 266.594 112.02L266.534 114.72L268.254 114.78C268.707 114.687 269.054 114.513 269.294 114.26C269.534 114.007 269.654 113.68 269.654 113.28ZM267.814 118.86C268.534 118.86 269.087 118.727 269.474 118.46C269.86 118.193 270.054 117.807 270.054 117.3C270.054 116.54 269.534 116.093 268.494 115.96L266.514 115.98L266.554 118.8C266.98 118.84 267.4 118.86 267.814 118.86ZM283.811 115.96L283.871 120H281.871L281.951 116.14L281.891 110.92L283.891 110.74L283.811 115.96ZM277.831 114.34C278.777 114.34 279.497 114.553 279.991 114.98C280.497 115.407 280.751 116.027 280.751 116.84C280.751 117.84 280.404 118.62 279.711 119.18C279.017 119.727 278.051 120 276.811 120H273.971L274.051 116.14L273.991 110.78H275.991L275.931 114.34H277.831ZM277.331 118.74C277.811 118.66 278.177 118.48 278.431 118.2C278.684 117.907 278.811 117.527 278.811 117.06C278.811 116.58 278.677 116.207 278.411 115.94C278.144 115.673 277.771 115.547 277.291 115.56L275.911 115.58V115.96L275.951 118.7L277.331 118.74ZM288.42 111.7L290.06 114.18L291.6 111.66L292.08 110.78H293.9L291.14 115.3L294.08 119.92L291.94 120.1L291.5 119.06L289.8 116.48L288.1 119.16L287.68 120H285.86L288.68 115.34L285.86 110.84L288.02 110.72L288.42 111.7ZM69.9538 139.22C71.2605 139.513 71.9138 140.233 71.9138 141.38C71.9138 142.3 71.5472 142.98 70.8138 143.42C70.0938 143.847 69.0205 144.06 67.5938 144.06C66.6738 144.06 65.7005 144.04 64.6738 144L64.7538 140.14L64.6938 134.78L68.2738 134.76C69.3138 134.76 70.1138 134.96 70.6738 135.36C71.2338 135.747 71.5138 136.307 71.5138 137.04C71.5138 137.52 71.3805 137.947 71.1138 138.32C70.8472 138.693 70.4605 138.993 69.9538 139.22ZM69.6538 137.28C69.6538 136.853 69.4872 136.533 69.1538 136.32C68.8205 136.107 68.3072 136 67.6138 136C67.1738 136 66.8338 136.007 66.5938 136.02L66.5338 138.72L68.2538 138.78C68.7072 138.687 69.0538 138.513 69.2938 138.26C69.5338 138.007 69.6538 137.68 69.6538 137.28ZM67.8138 142.86C68.5338 142.86 69.0872 142.727 69.4738 142.46C69.8605 142.193 70.0538 141.807 70.0538 141.3C70.0538 140.54 69.5338 140.093 68.4938 139.96L66.5138 139.98L66.5538 142.8C66.9805 142.84 67.4005 142.86 67.8138 142.86ZM80.747 139.48L75.127 139.5C75.1403 140.513 75.387 141.287 75.867 141.82C76.347 142.34 77.027 142.6 77.907 142.6C78.827 142.6 79.727 142.327 80.607 141.78L80.807 141.9L80.507 143.54C79.5336 143.967 78.587 144.18 77.667 144.18C76.2936 144.18 75.2136 143.76 74.427 142.92C73.6536 142.067 73.267 140.907 73.267 139.44C73.267 137.96 73.6536 136.787 74.427 135.92C75.2003 135.053 76.247 134.62 77.567 134.62C78.687 134.62 79.547 134.927 80.147 135.54C80.7603 136.153 81.067 137.02 81.067 138.14C81.067 138.447 81.0336 138.813 80.967 139.24L80.747 139.48ZM79.227 137.9C79.227 137.273 79.0803 136.8 78.787 136.48C78.507 136.16 78.0936 136 77.547 136C76.9336 136 76.427 136.2 76.027 136.6C75.627 136.987 75.3603 137.54 75.227 138.26L79.187 138.18L79.227 137.9ZM89.9043 139.96L89.9843 144H87.9843L88.0443 140.14L88.0243 136.14H85.9243L85.8443 136.8C85.6443 138.667 85.4176 140.107 85.1643 141.12C84.9243 142.133 84.6176 142.873 84.2443 143.34C83.8843 143.793 83.4043 144.073 82.8043 144.18L82.3243 144.2L82.0043 142.64C82.4976 142.48 82.8843 142.207 83.1643 141.82C83.4443 141.42 83.671 140.813 83.8443 140C84.0176 139.187 84.1776 138.007 84.3243 136.46L84.5043 134.82L84.4843 134.78H90.0043L89.9043 139.96ZM96.4746 134.6C97.7679 134.6 98.7613 135.007 99.4546 135.82C100.161 136.62 100.515 137.76 100.515 139.24C100.515 140.827 100.141 142.047 99.3946 142.9C98.6479 143.753 97.5879 144.18 96.2146 144.18C94.9213 144.18 93.9213 143.78 93.2146 142.98C92.5213 142.167 92.1746 141.02 92.1746 139.54C92.1746 137.953 92.5479 136.733 93.2946 135.88C94.0413 135.027 95.1013 134.6 96.4746 134.6ZM96.3546 136.02C94.8346 136.02 94.0746 137.047 94.0746 139.1C94.0746 140.353 94.2613 141.28 94.6346 141.88C95.0079 142.48 95.5813 142.78 96.3546 142.78C97.1146 142.78 97.6813 142.527 98.0546 142.02C98.4279 141.513 98.6146 140.74 98.6146 139.7C98.6146 138.447 98.4279 137.52 98.0546 136.92C97.6813 136.32 97.1146 136.02 96.3546 136.02ZM106.101 134.6C106.528 134.6 106.961 134.647 107.401 134.74C107.841 134.833 108.228 134.96 108.561 135.12L108.221 136.82L108.021 136.9C107.315 136.487 106.661 136.28 106.061 136.28C105.355 136.28 104.801 136.547 104.401 137.08C104.001 137.613 103.801 138.36 103.801 139.32C103.801 140.347 104.008 141.147 104.421 141.72C104.835 142.28 105.421 142.56 106.181 142.56C106.848 142.56 107.561 142.36 108.321 141.96L108.501 142.08L108.301 143.72C107.488 144.027 106.675 144.18 105.861 144.18C104.608 144.18 103.628 143.767 102.921 142.94C102.228 142.1 101.881 140.947 101.881 139.48C101.881 137.96 102.255 136.767 103.001 135.9C103.748 135.033 104.781 134.6 106.101 134.6ZM110.691 140.14L110.611 134.82L112.591 134.74L112.551 141.18H112.671L116.371 134.78H118.371L118.291 139.9L118.371 144H116.391L116.451 140.28L116.471 137.48H116.331L112.571 144H110.611L110.691 140.14ZM128.717 140.56L128.797 144H126.777L126.877 140.76L126.817 136.22H123.217L123.157 140.56L123.217 144H121.217L121.297 140.76L121.237 134.78H128.797L128.717 140.56ZM138.423 139.48L132.803 139.5C132.816 140.513 133.063 141.287 133.543 141.82C134.023 142.34 134.703 142.6 135.583 142.6C136.503 142.6 137.403 142.327 138.283 141.78L138.483 141.9L138.183 143.54C137.209 143.967 136.263 144.18 135.343 144.18C133.969 144.18 132.889 143.76 132.103 142.92C131.329 142.067 130.943 140.907 130.943 139.44C130.943 137.96 131.329 136.787 132.103 135.92C132.876 135.053 133.923 134.62 135.243 134.62C136.363 134.62 137.223 134.927 137.823 135.54C138.436 136.153 138.743 137.02 138.743 138.14C138.743 138.447 138.709 138.813 138.643 139.24L138.423 139.48ZM136.903 137.9C136.903 137.273 136.756 136.8 136.463 136.48C136.183 136.16 135.769 136 135.223 136C134.609 136 134.103 136.2 133.703 136.6C133.303 136.987 133.036 137.54 132.903 138.26L136.863 138.18L136.903 137.9ZM149.3 142.54V146.2L147.96 146.32L147.72 144H141.34L141.1 146.2L139.76 146.32V142.54H140.5C140.9 142.287 141.213 141.947 141.44 141.52C141.667 141.093 141.847 140.5 141.98 139.74C142.127 138.967 142.273 137.873 142.42 136.46L142.6 134.78H148.06L147.98 139.96L148.02 142.54H149.3ZM146.18 140.14L146.12 136.12H144.04L143.96 136.78C143.8 138.473 143.593 139.753 143.34 140.62C143.1 141.473 142.753 142.113 142.3 142.54H146.14L146.18 140.14ZM154.971 134.6C156.264 134.6 157.257 135.007 157.951 135.82C158.657 136.62 159.011 137.76 159.011 139.24C159.011 140.827 158.637 142.047 157.891 142.9C157.144 143.753 156.084 144.18 154.711 144.18C153.417 144.18 152.417 143.78 151.711 142.98C151.017 142.167 150.671 141.02 150.671 139.54C150.671 137.953 151.044 136.733 151.791 135.88C152.537 135.027 153.597 134.6 154.971 134.6ZM154.851 136.02C153.331 136.02 152.571 137.047 152.571 139.1C152.571 140.353 152.757 141.28 153.131 141.88C153.504 142.48 154.077 142.78 154.851 142.78C155.611 142.78 156.177 142.527 156.551 142.02C156.924 141.513 157.111 140.74 157.111 139.7C157.111 138.447 156.924 137.52 156.551 136.92C156.177 136.32 155.611 136.02 154.851 136.02ZM166.321 139.22C167.628 139.513 168.281 140.233 168.281 141.38C168.281 142.3 167.914 142.98 167.181 143.42C166.461 143.847 165.388 144.06 163.961 144.06C163.041 144.06 162.068 144.04 161.041 144L161.121 140.14L161.061 134.78L164.641 134.76C165.681 134.76 166.481 134.96 167.041 135.36C167.601 135.747 167.881 136.307 167.881 137.04C167.881 137.52 167.748 137.947 167.481 138.32C167.214 138.693 166.828 138.993 166.321 139.22ZM166.021 137.28C166.021 136.853 165.854 136.533 165.521 136.32C165.188 136.107 164.674 136 163.981 136C163.541 136 163.201 136.007 162.961 136.02L162.901 138.72L164.621 138.78C165.074 138.687 165.421 138.513 165.661 138.26C165.901 138.007 166.021 137.68 166.021 137.28ZM164.181 142.86C164.901 142.86 165.454 142.727 165.841 142.46C166.228 142.193 166.421 141.807 166.421 141.3C166.421 140.54 165.901 140.093 164.861 139.96L162.881 139.98L162.921 142.8C163.348 142.84 163.768 142.86 164.181 142.86ZM181.917 142.54V146.2L180.577 146.32L180.337 144H173.957L173.717 146.2L172.377 146.32V142.54H173.117C173.517 142.287 173.831 141.947 174.057 141.52C174.284 141.093 174.464 140.5 174.597 139.74C174.744 138.967 174.891 137.873 175.037 136.46L175.217 134.78H180.677L180.597 139.96L180.637 142.54H181.917ZM178.797 140.14L178.737 136.12H176.657L176.577 136.78C176.417 138.473 176.211 139.753 175.957 140.62C175.717 141.473 175.371 142.113 174.917 142.54H178.757L178.797 140.14ZM190.646 139.96L190.726 144H188.726L188.786 140.14L188.766 136.14H186.666L186.586 136.8C186.386 138.667 186.16 140.107 185.906 141.12C185.666 142.133 185.36 142.873 184.986 143.34C184.626 143.793 184.146 144.073 183.546 144.18L183.066 144.2L182.746 142.64C183.24 142.48 183.626 142.207 183.906 141.82C184.186 141.42 184.413 140.813 184.586 140C184.76 139.187 184.92 138.007 185.066 136.46L185.246 134.82L185.226 134.78H190.746L190.646 139.96ZM199.997 139.96L200.057 144H198.157L198.217 140.72H196.637C196.13 141.68 195.483 142.767 194.697 143.98L194.497 144.12C193.777 144.107 193.19 143.993 192.737 143.78L192.697 143.58C193.59 142.54 194.41 141.487 195.157 140.42C194.517 140.167 194.043 139.827 193.737 139.4C193.43 138.973 193.277 138.42 193.277 137.74C193.277 136.86 193.597 136.147 194.237 135.6C194.877 135.04 195.71 134.76 196.737 134.76L200.077 134.78L199.997 139.96ZM196.897 136.04C196.35 136.053 195.923 136.207 195.617 136.5C195.323 136.793 195.177 137.2 195.177 137.72C195.177 138.213 195.303 138.62 195.557 138.94C195.823 139.247 196.21 139.453 196.717 139.56L198.237 139.48V136.1L196.897 136.04ZM210.455 135C211.669 135 212.582 135.367 213.195 136.1C213.822 136.833 214.135 137.913 214.135 139.34C214.135 140.913 213.769 142.113 213.035 142.94C212.315 143.767 211.262 144.18 209.875 144.18C208.915 144.18 208.142 143.967 207.555 143.54C206.969 143.113 206.535 142.447 206.255 141.54C205.989 140.62 205.855 139.42 205.855 137.94C205.855 136.633 205.962 135.573 206.175 134.76C206.402 133.933 206.755 133.267 207.235 132.76C207.729 132.253 208.402 131.853 209.255 131.56L211.115 130.88C211.542 130.733 211.915 130.58 212.235 130.42C212.555 130.26 212.895 130.053 213.255 129.8L213.455 129.9L213.575 131.54C213.015 131.9 212.309 132.207 211.455 132.46L209.615 133.02C208.962 133.22 208.489 133.587 208.195 134.12C207.902 134.653 207.755 135.393 207.755 136.34V136.68L207.875 136.7C208.609 135.847 209.469 135.28 210.455 135ZM210.015 142.78C210.762 142.78 211.315 142.533 211.675 142.04C212.049 141.533 212.235 140.767 212.235 139.74C212.235 138.727 212.062 137.967 211.715 137.46C211.369 136.953 210.862 136.7 210.195 136.7C209.755 136.7 209.342 136.813 208.955 137.04C208.569 137.267 208.169 137.633 207.755 138.14C207.769 139.287 207.849 140.2 207.995 140.88C208.142 141.547 208.375 142.033 208.695 142.34C209.029 142.633 209.469 142.78 210.015 142.78ZM222.934 139.48L217.314 139.5C217.328 140.513 217.574 141.287 218.054 141.82C218.534 142.34 219.214 142.6 220.094 142.6C221.014 142.6 221.914 142.327 222.794 141.78L222.994 141.9L222.694 143.54C221.721 143.967 220.774 144.18 219.854 144.18C218.481 144.18 217.401 143.76 216.614 142.92C215.841 142.067 215.454 140.907 215.454 139.44C215.454 137.96 215.841 136.787 216.614 135.92C217.388 135.053 218.434 134.62 219.754 134.62C220.874 134.62 221.734 134.927 222.334 135.54C222.948 136.153 223.254 137.02 223.254 138.14C223.254 138.447 223.221 138.813 223.154 139.24L222.934 139.48ZM221.414 137.9C221.414 137.273 221.268 136.8 220.974 136.48C220.694 136.16 220.281 136 219.734 136C219.121 136 218.614 136.2 218.214 136.6C217.814 136.987 217.548 137.54 217.414 138.26L221.374 138.18L221.414 137.9ZM229.552 139.22C230.805 139.54 231.432 140.26 231.432 141.38C231.432 142.247 231.092 142.927 230.412 143.42C229.732 143.9 228.792 144.14 227.592 144.14C227.072 144.14 226.572 144.087 226.092 143.98C225.612 143.873 225.205 143.727 224.872 143.54L225.212 142.02L225.352 141.96C225.645 142.16 225.992 142.32 226.392 142.44C226.792 142.547 227.185 142.6 227.572 142.6C228.172 142.6 228.652 142.473 229.012 142.22C229.385 141.967 229.572 141.633 229.572 141.22C229.572 140.913 229.465 140.653 229.252 140.44C229.052 140.227 228.758 140.08 228.372 140H226.312L226.172 139.86L226.292 138.6L228.232 138.62C228.512 138.5 228.732 138.327 228.892 138.1C229.065 137.86 229.152 137.593 229.152 137.3C229.152 136.593 228.625 136.24 227.572 136.24C226.852 136.24 226.072 136.433 225.232 136.82L225.032 136.74L225.172 135.2C225.945 134.853 226.778 134.68 227.672 134.68C228.725 134.68 229.545 134.887 230.132 135.3C230.732 135.713 231.032 136.28 231.032 137C231.032 137.493 230.898 137.933 230.632 138.32C230.378 138.707 230.018 139.007 229.552 139.22ZM241.898 142.54V146.2L240.558 146.32L240.318 144H233.938L233.698 146.2L232.358 146.32V142.54H233.098C233.498 142.287 233.811 141.947 234.038 141.52C234.264 141.093 234.444 140.5 234.578 139.74C234.724 138.967 234.871 137.873 235.018 136.46L235.198 134.78H240.658L240.578 139.96L240.618 142.54H241.898ZM238.778 140.14L238.718 136.12H236.638L236.558 136.78C236.398 138.473 236.191 139.753 235.938 140.62C235.698 141.473 235.351 142.113 234.898 142.54H238.738L238.778 140.14ZM247.568 134.6C248.862 134.6 249.855 135.007 250.548 135.82C251.255 136.62 251.608 137.76 251.608 139.24C251.608 140.827 251.235 142.047 250.488 142.9C249.742 143.753 248.682 144.18 247.308 144.18C246.015 144.18 245.015 143.78 244.308 142.98C243.615 142.167 243.268 141.02 243.268 139.54C243.268 137.953 243.642 136.733 244.388 135.88C245.135 135.027 246.195 134.6 247.568 134.6ZM247.448 136.02C245.928 136.02 245.168 137.047 245.168 139.1C245.168 140.353 245.355 141.28 245.728 141.88C246.102 142.48 246.675 142.78 247.448 142.78C248.208 142.78 248.775 142.527 249.148 142.02C249.522 141.513 249.708 140.74 249.708 139.7C249.708 138.447 249.522 137.52 249.148 136.92C248.775 136.32 248.208 136.02 247.448 136.02ZM258.255 134.68C259.402 134.68 260.282 135.067 260.895 135.84C261.522 136.6 261.835 137.693 261.835 139.12C261.835 140.733 261.442 141.98 260.655 142.86C259.868 143.74 258.748 144.18 257.295 144.18C256.828 144.18 256.308 144.127 255.735 144.02L255.795 147.7H253.775L253.915 140.14L253.775 134.92L255.735 134.74L255.715 136.06H255.855C256.282 135.687 256.675 135.4 257.035 135.2C257.395 135 257.802 134.827 258.255 134.68ZM257.455 142.78C258.255 142.78 258.868 142.493 259.295 141.92C259.722 141.347 259.935 140.527 259.935 139.46C259.935 138.447 259.762 137.673 259.415 137.14C259.068 136.593 258.568 136.32 257.915 136.32C257.555 136.32 257.195 136.42 256.835 136.62C256.488 136.807 256.108 137.107 255.695 137.52L255.675 139.96L255.715 142.34C256.342 142.633 256.922 142.78 257.455 142.78ZM267.549 134.6C268.842 134.6 269.835 135.007 270.529 135.82C271.235 136.62 271.589 137.76 271.589 139.24C271.589 140.827 271.215 142.047 270.469 142.9C269.722 143.753 268.662 144.18 267.289 144.18C265.995 144.18 264.995 143.78 264.289 142.98C263.595 142.167 263.249 141.02 263.249 139.54C263.249 137.953 263.622 136.733 264.369 135.88C265.115 135.027 266.175 134.6 267.549 134.6ZM267.429 136.02C265.909 136.02 265.149 137.047 265.149 139.1C265.149 140.353 265.335 141.28 265.709 141.88C266.082 142.48 266.655 142.78 267.429 142.78C268.189 142.78 268.755 142.527 269.129 142.02C269.502 141.513 269.689 140.74 269.689 139.7C269.689 138.447 269.502 137.52 269.129 136.92C268.755 136.32 268.189 136.02 267.429 136.02ZM274.023 144.18C273.93 144.167 273.69 144.133 273.303 144.08C272.916 144.04 272.55 143.973 272.203 143.88V143.64C273.47 142.08 274.65 140.527 275.743 138.98L272.423 134.78H274.563L275.063 135.66L277.723 139.02V139.16C276.883 140.493 275.73 142.14 274.263 144.1L274.023 144.18ZM277.783 140.14L277.703 134.78H279.703L279.623 139.96L279.703 144H277.703L277.783 140.14ZM283.123 144.1C281.763 142.313 280.61 140.667 279.663 139.16V139.02L282.303 135.66L282.823 134.78H284.963L281.643 138.98C282.643 140.433 283.83 141.987 285.203 143.64L285.183 143.88C284.836 143.973 284.47 144.04 284.083 144.08C283.696 144.133 283.456 144.167 283.363 144.18L283.123 144.1ZM290.959 138.34C291.959 138.34 292.719 138.553 293.239 138.98C293.773 139.407 294.039 140.027 294.039 140.84C294.039 141.84 293.673 142.62 292.939 143.18C292.206 143.727 291.186 144 289.879 144H286.939L287.019 140.14L286.959 134.78H288.959L288.899 138.34H290.959ZM290.419 142.74C290.966 142.66 291.386 142.48 291.679 142.2C291.973 141.907 292.119 141.527 292.119 141.06C292.119 140.58 291.966 140.207 291.659 139.94C291.366 139.673 290.946 139.547 290.399 139.56L288.879 139.58V139.96L288.919 142.7L290.419 142.74ZM302.048 139.96L302.108 144H300.208L300.268 140.72H298.688C298.181 141.68 297.534 142.767 296.748 143.98L296.548 144.12C295.828 144.107 295.241 143.993 294.788 143.78L294.748 143.58C295.641 142.54 296.461 141.487 297.208 140.42C296.568 140.167 296.094 139.827 295.788 139.4C295.481 138.973 295.328 138.42 295.328 137.74C295.328 136.86 295.648 136.147 296.288 135.6C296.928 135.04 297.761 134.76 298.788 134.76L302.128 134.78L302.048 139.96ZM298.948 136.04C298.401 136.053 297.974 136.207 297.668 136.5C297.374 136.793 297.228 137.2 297.228 137.72C297.228 138.213 297.354 138.62 297.608 138.94C297.874 139.247 298.261 139.453 298.768 139.56L300.288 139.48V136.1L298.948 136.04ZM130.232 164.14L130.152 158.82L132.132 158.74L132.092 165.18H132.212L135.912 158.78H137.912L137.832 163.9L137.912 168H135.932L135.992 164.28L136.012 161.48H135.872L132.112 168H130.152L130.232 164.14ZM147.317 158.6C148.237 158.6 148.964 158.82 149.497 159.26C150.031 159.7 150.297 160.313 150.297 161.1C150.297 161.34 150.257 162.14 150.177 163.5C150.097 164.833 150.057 165.613 150.057 165.84C150.057 166.093 150.097 166.273 150.177 166.38C150.271 166.473 150.424 166.52 150.637 166.52C150.771 166.52 150.971 166.493 151.237 166.44L151.417 166.58L151.217 167.7C150.831 167.94 150.411 168.087 149.957 168.14C149.544 168.1 149.211 167.953 148.957 167.7C148.704 167.433 148.551 167.087 148.497 166.66H148.357C147.677 167.38 146.984 167.88 146.277 168.16C145.357 168.147 144.631 167.907 144.097 167.44C143.577 166.973 143.317 166.34 143.317 165.54C143.317 164.353 143.964 163.613 145.257 163.32L148.417 162.62L148.437 161.54C148.437 161.047 148.311 160.673 148.057 160.42C147.817 160.167 147.464 160.04 146.997 160.04C146.544 160.04 146.091 160.147 145.637 160.36C145.184 160.56 144.684 160.88 144.137 161.32L143.977 161.22L143.717 159.8C144.891 159 146.091 158.6 147.317 158.6ZM145.817 164.42C145.577 164.473 145.404 164.567 145.297 164.7C145.191 164.82 145.137 165.013 145.137 165.28C145.137 165.68 145.244 165.993 145.457 166.22C145.684 166.447 145.984 166.56 146.357 166.56C146.984 166.56 147.651 166.153 148.357 165.34L148.417 163.8L145.817 164.42ZM153.298 164.14L153.238 158.92L155.238 158.74L155.158 163.96L155.218 168H153.218L153.298 164.14ZM157.378 162.98C158.498 164.527 159.712 166.08 161.018 167.64L160.998 167.88C160.652 167.973 160.278 168.04 159.878 168.08C159.478 168.133 159.238 168.167 159.158 168.18L158.958 168.1C157.505 166.26 156.325 164.613 155.418 163.16V163.02L158.118 159.66L158.618 158.78H160.758L157.378 162.98ZM165.798 158.6C166.225 158.6 166.658 158.647 167.098 158.74C167.538 158.833 167.925 158.96 168.258 159.12L167.918 160.82L167.718 160.9C167.012 160.487 166.358 160.28 165.758 160.28C165.052 160.28 164.498 160.547 164.098 161.08C163.698 161.613 163.498 162.36 163.498 163.32C163.498 164.347 163.705 165.147 164.118 165.72C164.532 166.28 165.118 166.56 165.878 166.56C166.545 166.56 167.258 166.36 168.018 165.96L168.198 166.08L167.998 167.72C167.185 168.027 166.372 168.18 165.558 168.18C164.305 168.18 163.325 167.767 162.618 166.94C161.925 166.1 161.578 164.947 161.578 163.48C161.578 161.96 161.952 160.767 162.698 159.9C163.445 159.033 164.478 158.6 165.798 158.6ZM177.085 163.48L171.465 163.5C171.478 164.513 171.725 165.287 172.205 165.82C172.685 166.34 173.365 166.6 174.245 166.6C175.165 166.6 176.065 166.327 176.945 165.78L177.145 165.9L176.845 167.54C175.872 167.967 174.925 168.18 174.005 168.18C172.632 168.18 171.552 167.76 170.765 166.92C169.992 166.067 169.605 164.907 169.605 163.44C169.605 161.96 169.992 160.787 170.765 159.92C171.538 159.053 172.585 158.62 173.905 158.62C175.025 158.62 175.885 158.927 176.485 159.54C177.098 160.153 177.405 161.02 177.405 162.14C177.405 162.447 177.372 162.813 177.305 163.24L177.085 163.48ZM175.565 161.9C175.565 161.273 175.418 160.8 175.125 160.48C174.845 160.16 174.432 160 173.885 160C173.272 160 172.765 160.2 172.365 160.6C171.965 160.987 171.698 161.54 171.565 162.26L175.525 162.18L175.565 161.9ZM183.142 158.6C183.569 158.6 184.002 158.647 184.442 158.74C184.882 158.833 185.269 158.96 185.602 159.12L185.262 160.82L185.062 160.9C184.356 160.487 183.702 160.28 183.102 160.28C182.396 160.28 181.842 160.547 181.442 161.08C181.042 161.613 180.842 162.36 180.842 163.32C180.842 164.347 181.049 165.147 181.462 165.72C181.876 166.28 182.462 166.56 183.222 166.56C183.889 166.56 184.602 166.36 185.362 165.96L185.542 166.08L185.342 167.72C184.529 168.027 183.716 168.18 182.902 168.18C181.649 168.18 180.669 167.767 179.962 166.94C179.269 166.1 178.922 164.947 178.922 163.48C178.922 161.96 179.296 160.767 180.042 159.9C180.789 159.033 181.822 158.6 183.142 158.6ZM191.209 158.6C191.635 158.6 192.069 158.647 192.509 158.74C192.949 158.833 193.335 158.96 193.669 159.12L193.329 160.82L193.129 160.9C192.422 160.487 191.769 160.28 191.169 160.28C190.462 160.28 189.909 160.547 189.509 161.08C189.109 161.613 188.909 162.36 188.909 163.32C188.909 164.347 189.115 165.147 189.529 165.72C189.942 166.28 190.529 166.56 191.289 166.56C191.955 166.56 192.669 166.36 193.429 165.96L193.609 166.08L193.409 167.72C192.595 168.027 191.782 168.18 190.969 168.18C189.715 168.18 188.735 167.767 188.029 166.94C187.335 166.1 186.989 164.947 186.989 163.48C186.989 161.96 187.362 160.767 188.109 159.9C188.855 159.033 189.889 158.6 191.209 158.6ZM196.715 160.02L198.715 165.88H198.855L200.855 160.2L201.195 158.78H202.955L199.775 167.54C199.455 168.447 199.102 169.167 198.715 169.7C198.328 170.247 197.848 170.68 197.275 171C196.715 171.32 195.982 171.593 195.075 171.82H194.895C194.575 171.5 194.295 171.1 194.055 170.62L194.115 170.4C195.062 170.227 195.808 169.973 196.355 169.64C196.902 169.307 197.402 168.76 197.855 168L194.495 158.82L196.415 158.72L196.715 160.02ZM207.493 158.6C208.413 158.6 209.14 158.82 209.673 159.26C210.206 159.7 210.473 160.313 210.473 161.1C210.473 161.34 210.433 162.14 210.353 163.5C210.273 164.833 210.233 165.613 210.233 165.84C210.233 166.093 210.273 166.273 210.353 166.38C210.446 166.473 210.6 166.52 210.813 166.52C210.946 166.52 211.146 166.493 211.413 166.44L211.593 166.58L211.393 167.7C211.006 167.94 210.586 168.087 210.133 168.14C209.72 168.1 209.386 167.953 209.133 167.7C208.88 167.433 208.726 167.087 208.673 166.66H208.533C207.853 167.38 207.16 167.88 206.453 168.16C205.533 168.147 204.806 167.907 204.273 167.44C203.753 166.973 203.493 166.34 203.493 165.54C203.493 164.353 204.14 163.613 205.433 163.32L208.593 162.62L208.613 161.54C208.613 161.047 208.486 160.673 208.233 160.42C207.993 160.167 207.64 160.04 207.173 160.04C206.72 160.04 206.266 160.147 205.813 160.36C205.36 160.56 204.86 160.88 204.313 161.32L204.153 161.22L203.893 159.8C205.066 159 206.266 158.6 207.493 158.6ZM205.993 164.42C205.753 164.473 205.58 164.567 205.473 164.7C205.366 164.82 205.313 165.013 205.313 165.28C205.313 165.68 205.42 165.993 205.633 166.22C205.86 166.447 206.16 166.56 206.533 166.56C207.16 166.56 207.826 166.153 208.533 165.34L208.593 163.8L205.993 164.42ZM218.03 158.68C219.177 158.68 220.057 159.067 220.67 159.84C221.297 160.6 221.61 161.693 221.61 163.12C221.61 164.733 221.217 165.98 220.43 166.86C219.644 167.74 218.524 168.18 217.07 168.18C216.604 168.18 216.084 168.127 215.51 168.02L215.57 171.7H213.55L213.69 164.14L213.55 158.92L215.51 158.74L215.49 160.06H215.63C216.057 159.687 216.45 159.4 216.81 159.2C217.17 159 217.577 158.827 218.03 158.68ZM217.23 166.78C218.03 166.78 218.644 166.493 219.07 165.92C219.497 165.347 219.71 164.527 219.71 163.46C219.71 162.447 219.537 161.673 219.19 161.14C218.844 160.593 218.344 160.32 217.69 160.32C217.33 160.32 216.97 160.42 216.61 160.62C216.264 160.807 215.884 161.107 215.47 161.52L215.45 163.96L215.49 166.34C216.117 166.633 216.697 166.78 217.23 166.78ZM227.324 158.6C228.618 158.6 229.611 159.007 230.304 159.82C231.011 160.62 231.364 161.76 231.364 163.24C231.364 164.827 230.991 166.047 230.244 166.9C229.498 167.753 228.438 168.18 227.064 168.18C225.771 168.18 224.771 167.78 224.064 166.98C223.371 166.167 223.024 165.02 223.024 163.54C223.024 161.953 223.398 160.733 224.144 159.88C224.891 159.027 225.951 158.6 227.324 158.6ZM227.204 160.02C225.684 160.02 224.924 161.047 224.924 163.1C224.924 164.353 225.111 165.28 225.484 165.88C225.858 166.48 226.431 166.78 227.204 166.78C227.964 166.78 228.531 166.527 228.904 166.02C229.278 165.513 229.464 164.74 229.464 163.7C229.464 162.447 229.278 161.52 228.904 160.92C228.531 160.32 227.964 160.02 227.204 160.02ZM238.675 163.22C239.981 163.513 240.635 164.233 240.635 165.38C240.635 166.3 240.268 166.98 239.535 167.42C238.815 167.847 237.741 168.06 236.315 168.06C235.395 168.06 234.421 168.04 233.395 168L233.475 164.14L233.415 158.78L236.995 158.76C238.035 158.76 238.835 158.96 239.395 159.36C239.955 159.747 240.235 160.307 240.235 161.04C240.235 161.52 240.101 161.947 239.835 162.32C239.568 162.693 239.181 162.993 238.675 163.22ZM238.375 161.28C238.375 160.853 238.208 160.533 237.875 160.32C237.541 160.107 237.028 160 236.335 160C235.895 160 235.555 160.007 235.315 160.02L235.255 162.72L236.975 162.78C237.428 162.687 237.775 162.513 238.015 162.26C238.255 162.007 238.375 161.68 238.375 161.28ZM236.535 166.86C237.255 166.86 237.808 166.727 238.195 166.46C238.581 166.193 238.775 165.807 238.775 165.3C238.775 164.54 238.255 164.093 237.215 163.96L235.235 163.98L235.275 166.8C235.701 166.84 236.121 166.86 236.535 166.86Z" fill="white"/>
<g opacity="0.9">
<rect x="158" y="20" width="64" height="64" rx="15" fill="white"/>
<path d="M207.333 28H172.667C170.899 28.0021 169.205 28.7052 167.955 29.955C166.705 31.2047 166.002 32.8992 166 34.6667V69.3333C166.002 71.1009 166.705 72.7955 167.955 74.0453C169.204 75.2952 170.899 75.9982 172.667 76H191.333C191.687 76 192.026 75.8595 192.276 75.6095C192.526 75.3594 192.667 75.0203 192.667 74.6667C192.667 74.313 192.526 73.9739 192.276 73.7239C192.026 73.4738 191.687 73.3333 191.333 73.3333H172.667C171.606 73.3321 170.589 72.9103 169.84 72.1604C169.09 71.4106 168.668 70.3938 168.667 69.3333V34.6667C168.668 33.6062 169.09 32.5895 169.84 31.8396C170.589 31.0897 171.606 30.6679 172.667 30.6667H182V45.3333C182 45.687 182.14 46.0261 182.391 46.2761C182.641 46.5262 182.98 46.6667 183.333 46.6667H196.667C197.02 46.6667 197.359 46.5262 197.609 46.2761C197.86 46.0261 198 45.687 198 45.3333V30.6667H207.333C208.394 30.6679 209.411 31.0897 210.16 31.8396C210.91 32.5895 211.332 33.6062 211.333 34.6667V56C211.333 56.3536 211.474 56.6928 211.724 56.9428C211.974 57.1929 212.313 57.3333 212.667 57.3333C213.02 57.3333 213.359 57.1929 213.609 56.9428C213.86 56.6928 214 56.3536 214 56V34.6667C213.998 32.8992 213.295 31.2047 212.045 29.955C210.795 28.7052 209.101 28.0021 207.333 28ZM195.333 44H184.667V30.6667H195.333V44Z" fill="black"/>
<path d="M213.609 64.9427L204.276 74.276C204.026 74.526 203.687 74.6664 203.333 74.6664C202.98 74.6664 202.641 74.526 202.391 74.276L198.391 70.276C198.148 70.0245 198.013 69.6877 198.016 69.3381C198.019 68.9885 198.16 68.6541 198.407 68.4069C198.654 68.1597 198.989 68.0195 199.338 68.0164C199.688 68.0134 200.025 68.1478 200.276 68.3907L203.333 71.448L211.725 63.0573C211.977 62.8144 212.314 62.6801 212.663 62.6831C213.013 62.6861 213.347 62.8264 213.594 63.0736C213.842 63.3208 213.982 63.6552 213.985 64.0048C213.988 64.3544 213.852 64.6912 213.609 64.9427Z" fill="black"/>
</g>
</svg>
