<svg width="372" height="245" viewBox="0 0 372 245" fill="none" xmlns="http://www.w3.org/2000/svg">
<rect opacity="0.85" width="372" height="245" rx="25" fill="#FD6816"/>
<g opacity="0.9">
<rect x="154" y="20" width="64" height="64" rx="15" fill="white"/>
<path d="M169.083 74.6107C168.7 74.9436 168.23 75.1604 167.728 75.2356C167.226 75.3108 166.713 75.2413 166.25 75.0352C165.786 74.8292 165.391 74.4951 165.111 74.0722C164.83 73.6494 164.676 73.1553 164.667 72.648V66.6667C163.252 66.6667 161.896 66.1048 160.895 65.1046C159.895 64.1044 159.333 62.7478 159.333 61.3334V42.6667C159.333 41.2522 159.895 39.8956 160.895 38.8955C161.896 37.8953 163.252 37.3334 164.667 37.3334H194C195.414 37.3334 196.771 37.8953 197.771 38.8955C198.771 39.8956 199.333 41.2522 199.333 42.6667V61.3334C199.333 62.7478 198.771 64.1044 197.771 65.1046C196.771 66.1048 195.414 66.6667 194 66.6667H180.675L169.083 74.6107ZM171.333 66.3627C171.576 66.3613 171.815 66.298 172.027 66.1787L178.307 61.8107C178.754 61.4999 179.285 61.3333 179.829 61.3334H191.333C192.041 61.3334 192.719 61.0524 193.219 60.5523C193.719 60.0522 194 59.3739 194 58.6667V45.3334C194 44.6261 193.719 43.9478 193.219 43.4477C192.719 42.9476 192.041 42.6667 191.333 42.6667H167.333C166.626 42.6667 165.948 42.9476 165.448 43.4477C164.948 43.9478 164.667 44.6261 164.667 45.3334V58.6667C164.667 60.1067 165.811 61.2854 167.333 61.3334C168.427 61.376 169.219 61.5547 169.584 61.936C169.925 62.2934 169.944 62.896 170 64.0427C170.008 64.2107 170.008 64.5147 170 65.0294C170 65.383 170.14 65.7221 170.391 65.9722C170.641 66.2222 170.98 66.3627 171.333 66.3627ZM202 53.376C201.991 53.7049 201.991 54.0339 202 54.3627V53.376C202.053 52.2294 202.075 51.6267 202.416 51.2694C202.781 50.888 203.573 50.7094 204.667 50.6667C206.189 50.6187 207.333 49.44 207.333 48V34.6667C207.333 33.9594 207.052 33.2812 206.552 32.7811C206.052 32.281 205.374 32 204.667 32H180.667C179.959 32 179.281 32.281 178.781 32.7811C178.281 33.2812 178 33.9594 178 34.6667H172.667V32C172.667 30.5855 173.229 29.229 174.229 28.2288C175.229 27.2286 176.586 26.6667 178 26.6667H207.333C208.748 26.6667 210.104 27.2286 211.105 28.2288C212.105 29.229 212.667 30.5855 212.667 32V50.6667C212.667 52.0812 212.105 53.4377 211.105 54.4379C210.104 55.4381 208.748 56 207.333 56V61.9814C207.324 62.4887 207.17 62.9827 206.889 63.4056C206.609 63.8284 206.214 64.1625 205.75 64.3686C205.287 64.5746 204.774 64.6441 204.272 64.5689C203.77 64.4937 203.3 64.277 202.917 63.944L202 63.3147V53.3787V53.376Z" fill="black"/>
</g>
</svg>
