<svg width="122" height="63" viewBox="0 0 122 63" fill="none" xmlns="http://www.w3.org/2000/svg">
<path d="M23.264 40.3009C23.264 41.6449 22.9013 42.8609 22.176 43.9489C21.4507 45.0369 20.3947 45.8369 19.008 46.3489L23.904 55.5649H15.968L12.064 47.5329H9.44V55.5649H2.368V33.5489H15.84C17.4187 33.5489 18.7627 33.8583 19.872 34.4769C21.0027 35.0743 21.8453 35.8956 22.4 36.9409C22.976 37.9649 23.264 39.0849 23.264 40.3009ZM16.064 40.5889C16.064 40.0129 15.872 39.5329 15.488 39.1489C15.104 38.7649 14.6347 38.5729 14.08 38.5729H9.44V42.6369H14.08C14.6347 42.6369 15.104 42.4449 15.488 42.0609C15.872 41.6556 16.064 41.1649 16.064 40.5889ZM27.0503 36.6849V32.3649H33.4183V36.6849H27.0503ZM27.0503 55.5649V38.6689H33.4183V55.5649H27.0503ZM49.7705 55.5649L49.2265 53.1649C47.9892 55.0209 46.1972 55.9489 43.8505 55.9489C41.5678 55.9489 39.8078 55.2023 38.5705 53.7089C37.3332 52.2156 36.7145 50.0076 36.7145 47.0849C36.7145 44.1836 37.3332 41.9969 38.5705 40.5249C39.8078 39.0316 41.5678 38.2849 43.8505 38.2849C45.7918 38.2849 47.3705 38.9356 48.5865 40.2369V32.3649H54.9545V55.5649H49.7705ZM45.8345 42.9889C43.9998 42.9889 43.0825 44.0876 43.0825 46.2849V47.9809C43.0825 50.1569 43.9998 51.2449 45.8345 51.2449C46.7732 51.2449 47.4772 50.9143 47.9465 50.2529C48.4158 49.5916 48.6505 48.7276 48.6505 47.6609V46.6049C48.6505 45.5383 48.4158 44.6743 47.9465 44.0129C47.4772 43.3303 46.7732 42.9889 45.8345 42.9889ZM67.5623 38.2849C70.6556 38.2849 73.0129 39.0103 74.6343 40.4609C76.2769 41.9116 77.0983 44.1303 77.0983 47.1169V48.2049H64.4263C64.4263 49.4209 64.6929 50.3383 65.2263 50.9569C65.7809 51.5756 66.6449 51.8849 67.8183 51.8849C68.8849 51.8849 69.6636 51.6609 70.1543 51.2129C70.6663 50.7649 70.9223 50.1676 70.9223 49.4209H77.0983C77.0983 51.4689 76.3196 53.0689 74.7623 54.2209C73.2049 55.3729 70.9329 55.9489 67.9463 55.9489C64.8103 55.9489 62.3783 55.2236 60.6503 53.7729C58.9223 52.3009 58.0583 50.0823 58.0583 47.1169C58.0583 44.2156 58.9009 42.0183 60.5863 40.5249C62.2716 39.0316 64.5969 38.2849 67.5623 38.2849ZM67.8183 42.3489C65.8129 42.3489 64.6929 43.2983 64.4583 45.1969H70.6663C70.6663 44.3223 70.4103 43.6289 69.8983 43.1169C69.4076 42.6049 68.7143 42.3489 67.8183 42.3489ZM91.5943 55.5649V33.5489H98.6663V55.5649H91.5943ZM114.528 38.6689V42.9889H110.944V49.4209C110.944 50.1889 111.072 50.7543 111.328 51.1169C111.584 51.4583 112.053 51.6289 112.736 51.6289H114.528V55.3729C114.016 55.5436 113.354 55.6823 112.544 55.7889C111.733 55.8956 111.029 55.9489 110.432 55.9489C108.554 55.9489 107.104 55.6076 106.08 54.9249C105.077 54.2423 104.576 53.0796 104.576 51.4369V42.9889H102.208V38.6689H104.832L106.208 33.5489H110.944V38.6689H114.528Z" fill="black"/>
<path d="M118.187 55.6289C117.291 55.6289 116.843 55.3943 116.843 54.9249V52.8129C116.843 52.3436 117.291 52.1089 118.187 52.1089H118.635C119.531 52.1089 119.979 52.3436 119.979 52.8129V54.9249C119.979 55.3943 119.531 55.6289 118.635 55.6289H118.187Z" fill="#FD6816"/>
<g clip-path="url(#clip0_3_13)">
<path d="M93.4611 20.661L92.3427 20.3795C92.2949 20.5701 92.2965 20.7698 92.3474 20.9595C92.3984 21.1493 92.497 21.323 92.6339 21.4639C92.7708 21.6049 92.9415 21.7086 93.1297 21.7651C93.3179 21.8216 93.5175 21.829 93.7094 21.7868L93.4611 20.661ZM98.4979 19.5504L99.4876 18.9583C99.3633 18.7507 99.1769 18.5875 98.9547 18.4918C98.7326 18.396 98.4859 18.3726 98.2497 18.4247L98.4979 19.5504ZM99.6004 23.6425C99.6778 23.7732 99.7803 23.8873 99.9019 23.9782C100.024 24.0692 100.162 24.1353 100.309 24.1726C100.456 24.2099 100.61 24.2178 100.76 24.1958C100.91 24.1738 101.055 24.1223 101.185 24.0443C101.315 23.9664 101.429 23.8634 101.519 23.7414C101.61 23.6194 101.675 23.4807 101.712 23.3333C101.749 23.1859 101.756 23.0327 101.733 22.8826C101.71 22.7324 101.658 22.5882 101.58 22.4582L99.6004 23.6425ZM94.8689 15.069L94.9894 13.9221C94.7134 13.8931 94.4361 13.9646 94.2085 14.1236C93.9809 14.2825 93.8183 14.5182 93.7505 14.7874L94.8689 15.069ZM98.9242 15.4952L98.8036 16.642C99.1078 16.674 99.4122 16.5839 99.65 16.3915L98.9242 15.4952ZM101.443 14.9399C101.68 14.7474 101.832 14.4683 101.864 14.1641C101.896 13.8599 101.806 13.5555 101.613 13.3178C101.421 13.0801 101.141 12.9285 100.837 12.8966C100.533 12.8646 100.229 12.9548 99.9909 13.1473L101.443 14.9399ZM97.0049 25.9536C97.3899 26.429 97.5703 27.0379 97.5063 27.6463C97.4424 28.2547 97.1394 28.8128 96.6639 29.1978L98.1156 30.9903C99.0664 30.2204 99.6724 29.1042 99.8003 27.8874C99.9282 26.6706 99.5675 25.4528 98.7975 24.502L97.0049 25.9536ZM96.6639 29.1978C96.1885 29.5828 95.5796 29.7631 94.9712 29.6992C94.3628 29.6352 93.8047 29.3322 93.4197 28.8568L91.6272 30.3084C92.3971 31.2592 93.5133 31.8653 94.7301 31.9932C95.9469 32.1211 97.1647 31.7603 98.1156 30.9903L96.6639 29.1978ZM93.4197 28.8568C93.0348 28.3814 92.8544 27.7725 92.9183 27.1641C92.9823 26.5557 93.2853 25.9976 93.7607 25.6126L92.3091 23.82C91.3583 24.59 90.7522 25.7061 90.6243 26.923C90.4965 28.1398 90.8572 29.3575 91.6272 30.3084L93.4197 28.8568ZM93.7607 25.6126C94.2361 25.2276 94.845 25.0472 95.4534 25.1112C96.0618 25.1751 96.6199 25.4781 97.0049 25.9536L98.7975 24.502C98.0275 23.5511 96.9114 22.9451 95.6946 22.8172C94.4777 22.6893 93.26 23.05 92.3091 23.82L93.7607 25.6126ZM93.7094 21.7868L98.7462 20.6761L98.2497 18.4247L93.2129 19.5353L93.7094 21.7868ZM97.5083 20.1426L99.6004 23.6425L101.58 22.4582L99.4876 18.9583L97.5083 20.1426ZM94.5796 20.9426L95.9873 15.3505L93.7505 14.7874L92.3427 20.3795L94.5796 20.9426ZM94.7484 16.2158L98.8036 16.642L99.0447 14.3484L94.9894 13.9221L94.7484 16.2158ZM99.65 16.3915L101.443 14.9399L99.9909 13.1473L98.1983 14.5989L99.65 16.3915ZM107.76 17.2439C108.145 17.7193 108.326 18.3282 108.262 18.9366C108.198 19.545 107.895 20.1031 107.419 20.4881L108.871 22.2807C109.822 21.5107 110.428 20.3945 110.556 19.1777C110.684 17.9609 110.323 16.7432 109.553 15.7923L107.76 17.2439ZM107.419 20.4881C106.944 20.8731 106.335 21.0535 105.727 20.9895C105.118 20.9256 104.56 20.6226 104.175 20.1471L102.383 21.5987C103.153 22.5496 104.269 23.1556 105.486 23.2835C106.702 23.4114 107.92 23.0507 108.871 22.2807L107.419 20.4881ZM104.175 20.1471C103.79 19.6717 103.61 19.0628 103.674 18.4544C103.738 17.846 104.041 17.2879 104.516 16.9029L103.065 15.1103C102.114 15.8803 101.508 16.9965 101.38 18.2133C101.252 19.4301 101.613 20.6479 102.383 21.5987L104.175 20.1471ZM104.516 16.9029C104.992 16.5179 105.601 16.3376 106.209 16.4015C106.817 16.4655 107.375 16.7685 107.76 17.2439L109.553 15.7923C108.783 14.8415 107.667 14.2354 106.45 14.1075C105.233 13.9796 104.015 14.3404 103.065 15.1103L104.516 16.9029ZM95.2951 11.0137L96.7467 12.8063C97.2222 12.4213 97.5252 11.8632 97.5891 11.2548C97.6531 10.6464 97.4727 10.0375 97.0877 9.5621L95.2951 11.0137ZM95.2951 11.0137L93.5025 12.4653C93.8875 12.9407 94.4456 13.2438 95.054 13.3077C95.6624 13.3716 96.2713 13.1913 96.7467 12.8063L95.2951 11.0137ZM95.2951 11.0137L93.8435 9.22112C93.3681 9.60611 93.0651 10.1642 93.0011 10.7726C92.9372 11.381 93.1176 11.9899 93.5025 12.4653L95.2951 11.0137ZM95.2951 11.0137L97.0877 9.5621C96.7027 9.08667 96.1446 8.78366 95.5362 8.71971C94.9278 8.65577 94.3189 8.83613 93.8435 9.22112L95.2951 11.0137Z" fill="black"/>
</g>
<defs>
<clipPath id="clip0_3_13">
<rect width="27.6795" height="27.6795" fill="white" transform="translate(78.2217 17.4193) rotate(-39)"/>
</clipPath>
</defs>
</svg>
